<svg width="376" height="232" viewBox="0 0 376 232" fill="none" xmlns="http://www.w3.org/2000/svg">
<g clip-path="url(#clip0_1_780)" filter="url(#filter0_d_1_780)">
<g clip-path="url(#clip1_1_780)">
<mask id="mask0_1_780" style="mask-type:alpha" maskUnits="userSpaceOnUse" x="23" y="-197" width="466" height="384">
<path d="M26.6947 -107.235L23.2643 -62.1721L25.5842 -22.4744L35.892 11.2925L51.9473 50.887L64.7772 75.386L92.9697 111.198L144.058 152.881L207.751 178.012L248.294 186.121L303.846 185.181L362.648 169.004L405.77 150.509L445.181 118.266L480.174 76.756L488.27 61.8739L381.753 0.441269L377.666 7.95471L359.986 28.9269L340.076 45.2207L318.287 54.5603L288.579 62.7338L260.513 63.2099L240.034 59.1144L207.851 46.4121L182.043 25.3563L167.797 7.26312L161.313 -5.11574L153.201 -25.1138L147.995 -42.1762L146.821 -62.2311L148.556 -84.9985L156.137 -111.486L171.519 -138.102L172.533 -139.282L63.0906 -196.649L41.7108 -159.655L26.6947 -107.235Z" fill="#00CBBA"/>
</mask>
<g mask="url(#mask0_1_780)">
<path d="M26.6947 -107.235L23.2643 -62.1721L25.5842 -22.4744L35.892 11.2925L51.9473 50.887L64.7772 75.386L92.9697 111.198L144.058 152.881L207.751 178.012L248.294 186.121L303.846 185.181L362.648 169.004L405.77 150.509L445.181 118.266L480.174 76.756L488.27 61.8739L381.753 0.441269L377.666 7.95471L359.986 28.9269L340.076 45.2207L318.287 54.5603L288.579 62.7338L260.513 63.2099L240.034 59.1144L207.851 46.4121L182.043 25.3563L167.797 7.26312L161.313 -5.11574L153.201 -25.1138L147.995 -42.1762L146.821 -62.2311L148.556 -84.9985L156.137 -111.486L171.519 -138.102L172.533 -139.282L63.0906 -196.649L41.7108 -159.655L26.6947 -107.235Z" fill="#03CCBB"/>
<path d="M9.4325 260.611C29.0496 254.625 54.9897 246.849 80.0339 239.327C105.078 231.804 131.018 224.028 150.687 218.029C157.113 216.059 167.528 212.525 178.506 208.786C193.123 203.824 208.231 198.689 216.731 196.287C231.433 192.155 244.981 188.649 256.895 185.525C276.573 180.431 292.115 176.404 300.999 172.607C324.414 162.604 349.387 155.843 373.521 149.294C434.096 132.885 496.77 115.884 558.447 99.6338L558.791 100.918C497.049 117.186 434.439 134.168 373.801 150.596C349.706 157.134 324.796 163.878 301.455 173.846C292.471 177.63 276.903 181.719 257.163 186.829C245.225 189.918 231.703 193.417 217.024 197.584C208.562 199.975 193.464 205.095 178.863 210.066C167.833 213.82 157.406 217.357 150.954 219.333C131.336 225.319 105.387 233.111 80.3008 240.631C55.2146 248.151 29.3165 255.929 9.64803 261.929L9.4325 260.611Z" fill="#F7F2ED"/>
<path d="M-24.8124 127.668C67.2547 102.723 165.98 76.0077 264.707 49.2926C363.433 22.5775 462.147 -4.13396 554.217 -29.0656C555.733 -29.4719 557.414 -30.0324 558.02 -31.2679C558.13 -31.5811 558.142 -31.9204 558.057 -32.2411C557.971 -32.5618 557.79 -32.849 557.539 -33.0651C557.422 -33.1977 557.264 -33.2859 557.09 -33.3147C556.918 -33.3435 556.739 -33.3112 556.587 -33.223L555.862 -34.3359C556.259 -34.5841 556.727 -34.6919 557.193 -34.6418C557.658 -34.5919 558.093 -34.3871 558.429 -34.0604C558.899 -33.6524 559.23 -33.1064 559.372 -32.5C559.515 -31.8935 559.463 -31.2575 559.223 -30.6822C558.317 -28.9259 556.382 -28.2836 554.573 -27.7853C462.503 -2.85364 363.789 23.8579 265.064 50.573C166.338 77.2879 67.6115 104.003 -24.4556 128.947L-24.8124 127.668Z" fill="#F7F2ED"/>
<path d="M-58.8768 6.60347L-59.2208 5.31972C117.667 -39.1328 340.131 -102.621 494.283 -152.623L494.705 -151.36C340.501 -101.346 118.036 -37.8559 -58.8768 6.60347Z" fill="#F7F2ED"/>
<path d="M372.659 -257.778C366.924 -279.179 361.19 -300.578 355.616 -321.898L356.901 -322.242C372.567 -262.693 388.965 -202.266 404.817 -143.827L404.882 -143.583C411.203 -120.303 417.723 -96.224 427.585 -73.7558C431.381 -65.1414 435.314 -50.0552 440.205 -30.9748C443.198 -19.3934 446.564 -6.3707 450.597 7.80768C452.911 15.9799 457.941 30.5379 462.802 44.6184C466.47 55.276 469.951 65.337 471.867 71.5655C477.703 90.517 485.282 115.565 492.603 139.801C499.923 164.037 507.498 189.072 513.33 208.01L512.046 208.355C506.21 189.403 498.644 164.353 491.314 140.132C483.984 115.912 476.415 90.8484 470.583 71.9097C468.669 65.6941 465.205 55.6425 461.531 45.0141C456.663 30.9079 451.626 16.3242 449.302 8.11343C445.304 -6.0881 441.989 -19.1794 438.904 -30.6947C433.989 -49.7007 430.117 -64.72 426.365 -73.2773C416.448 -95.8412 409.918 -119.959 403.586 -143.277L403.518 -143.534C393.354 -181.001 382.94 -219.406 372.659 -257.778Z" fill="#F7F2ED"/>
<path d="M217.258 -317.531C217.184 -317.852 217.19 -318.185 217.275 -318.503C217.361 -318.822 217.522 -319.114 217.747 -319.355C218.168 -319.856 218.732 -320.217 219.365 -320.386C219.997 -320.556 220.666 -320.526 221.281 -320.301C223.065 -319.5 223.723 -317.557 224.204 -315.814C248.313 -226.867 274.05 -131.793 299.799 -36.7224L375.408 242.366L374.122 242.711L298.514 -36.3781C272.765 -131.449 247.028 -226.524 222.919 -315.471C222.53 -316.921 221.992 -318.524 220.736 -319.096C220.388 -319.208 220.015 -319.217 219.662 -319.122C219.309 -319.027 218.991 -318.833 218.745 -318.562C218.372 -318.104 218.554 -317.837 218.62 -317.744L217.525 -316.997C217.407 -317.159 217.317 -317.34 217.258 -317.531Z" fill="#F7F2ED"/>
<path d="M94.5658 -255.169L95.83 -255.59C144.836 -106.362 206.67 109.451 249.729 281.56L248.444 281.903C205.389 109.808 143.551 -106.018 94.5658 -255.169Z" fill="#F7F2ED"/>
<path d="M-34.175 -220.468L-32.8902 -220.811C9.94301 -78.7895 70.3861 128.645 114.958 310.406L113.673 310.751C69.0662 129.013 8.66848 -78.4067 -34.175 -220.468Z" fill="#F7F2ED"/>
</g>
</g>
</g>
<defs>
<filter id="filter0_d_1_780" x="-3.2002" y="0.409668" width="382.98" height="230.98" filterUnits="userSpaceOnUse" color-interpolation-filters="sRGB">
<feFlood flood-opacity="0" result="BackgroundImageFix"/>
<feColorMatrix in="SourceAlpha" type="matrix" values="0 0 0 0 0 0 0 0 0 0 0 0 0 0 0 0 0 0 127 0" result="hardAlpha"/>
<feOffset dy="4"/>
<feGaussianBlur stdDeviation="2"/>
<feComposite in2="hardAlpha" operator="out"/>
<feColorMatrix type="matrix" values="0 0 0 0 0 0 0 0 0 0 0 0 0 0 0 0 0 0 0.25 0"/>
<feBlend mode="normal" in2="BackgroundImageFix" result="effect1_dropShadow_1_780"/>
<feBlend mode="normal" in="SourceGraphic" in2="effect1_dropShadow_1_780" result="shape"/>
</filter>
<clipPath id="clip0_1_780">
<rect width="374.98" height="222.98" fill="white" transform="translate(0.799805 0.409668)"/>
</clipPath>
<clipPath id="clip1_1_780">
<rect width="374.98" height="255.578" fill="white" transform="translate(0.799805 0.409668)"/>
</clipPath>
</defs>
</svg>
