<svg width="283" height="207" viewBox="0 0 283 207" fill="none" xmlns="http://www.w3.org/2000/svg">
<g clip-path="url(#clip0_1_747)">
<mask id="mask0_1_747" style="mask-type:alpha" maskUnits="userSpaceOnUse" x="-109" y="-136" width="392" height="343">
<path d="M179.548 -135.672H-5.55876L-44.2975 -74.004L-108.055 34.2334L-74.3091 96.5248L-9.97851 204.139L106.547 206.346L186.175 201.925L261.502 73.6528L282.045 32.0204L208.521 -96.9658L179.548 -135.672Z" fill="#FFA800"/>
</mask>
<g mask="url(#mask0_1_747)">
<path d="M179.548 -135.672H-5.55876L-44.2975 -74.004L-108.055 34.2334L-74.3091 96.5248L-9.97851 204.139L106.547 206.346L186.175 201.925L261.502 73.6528L282.045 32.0204L208.521 -96.9658L179.548 -135.672Z" fill="#FFA4CB"/>
<path d="M238.909 47.8989L237.932 47.3364C238.067 47.1114 251.275 24.4233 257.318 16.8081C257.633 16.3068 258.055 15.8821 258.554 15.5648C259.053 15.2477 259.618 15.0461 260.205 14.9746C261.541 14.9746 262.451 16.2795 262.945 16.9543C265.708 20.7788 269.583 26.2681 273.312 31.5774C277.042 36.8866 280.916 42.3646 283.691 46.2003L282.781 46.8528C280.006 43.0283 276.143 37.539 272.402 32.2297C268.663 26.9205 264.799 21.4425 262.035 17.6068C261.507 16.8868 260.912 16.122 260.159 16.0995C259.407 16.077 258.789 16.7632 258.194 17.5055C252.208 25.0645 239.032 47.6739 238.909 47.8989Z" fill="#F7F2ED"/>
<path d="M281.972 106.02C275.296 97.092 267.911 88.7183 259.89 80.9807C259.39 80.3497 258.681 79.9188 257.89 79.7658C256.97 79.6983 256.149 80.6544 255.42 81.6555L239.695 103.174L238.785 102.51L254.51 80.9919C255.42 79.7433 256.453 78.5735 257.879 78.641C258.952 78.7914 259.929 79.3369 260.62 80.1708C268.687 87.9527 276.116 96.3707 282.837 105.345L281.972 106.02Z" fill="#F7F2ED"/>
<path d="M240.155 164.05L239.201 163.454C245.221 153.645 251.68 143.949 258.397 134.636L258.767 134.119L259.228 134.546C264.215 139.301 268.76 144.501 272.807 150.08C275.671 153.814 278.636 157.673 282.332 161.7L281.511 162.464C277.771 158.404 274.773 154.523 271.909 150.766C268.028 145.427 263.695 140.433 258.958 135.84C252.387 144.939 246.075 154.433 240.155 164.05Z" fill="#F7F2ED"/>
<path d="M242.324 222.092L241.346 221.541C246.704 212.18 252.852 203.295 259.722 194.984L260.159 194.455L280.253 219.483L279.378 220.179L260.148 196.232C253.497 204.339 247.534 212.989 242.324 222.092Z" fill="#F7F2ED"/>
<path d="M173.988 224.465C173.607 224.467 173.227 224.406 172.865 224.285C172.213 224.06 170.877 222.902 168.911 220.843C165.581 217.427 162.721 213.579 160.409 209.403C158.144 205.301 155.346 201.519 152.086 198.155L152.894 197.379C156.218 200.797 159.07 204.644 161.375 208.819C163.639 212.921 166.438 216.704 169.698 220.067C170.718 221.275 171.901 222.335 173.213 223.216C174.606 223.689 176.257 222.733 178.099 220.348C185.737 210.517 191.286 202.868 195.071 196.974L196.025 197.581C192.217 203.498 186.646 211.17 178.987 221.046C177.257 223.341 175.583 224.465 173.988 224.465Z" fill="#F7F2ED"/>
<path d="M173.887 170.158C172.944 170.158 164.902 160.529 150.076 141.655L150.963 140.957C159.129 151.339 171.551 166.829 173.843 168.865C177.952 164.152 181.795 159.214 185.355 154.073C189.023 148.761 193.002 143.672 197.272 138.832L198.093 139.596C193.849 144.401 189.892 149.453 186.243 154.725C182.578 160.04 178.598 165.13 174.326 169.967L174.157 170.158H173.887Z" fill="#F7F2ED"/>
<path d="M175.01 112.611L150.02 82.1726L150.884 81.464L174.898 110.71C177.145 107.222 188.242 90.4627 197.362 80.7666L198.182 81.5315C188.14 92.307 175.595 111.768 175.471 111.902L175.01 112.611Z" fill="#F7F2ED"/>
<path d="M174.753 55.7278H174.686C173.338 55.7278 172.438 54.423 171.933 53.7481C169.171 49.9348 165.307 44.4457 161.577 39.1252C157.849 33.8047 153.962 28.3154 151.199 24.5021L152.109 23.8498C154.872 27.6742 158.747 33.1634 162.487 38.4727C166.228 43.782 170.08 49.2487 172.843 53.0957C173.371 53.8269 173.966 54.5917 174.719 54.6142C175.427 54.6142 176.066 53.9393 176.651 53.2081C182.637 45.6492 195.813 23.0399 195.947 22.8374L196.913 23.3998C196.778 23.6248 183.57 46.3129 177.527 53.928C177.219 54.4093 176.813 54.8189 176.335 55.1294C175.856 55.4399 175.317 55.6439 174.753 55.7278Z" fill="#F7F2ED"/>
<path d="M65.3651 47.8989L64.3992 47.3364C64.5339 47.1114 77.7313 24.4233 83.7853 16.8081C84.0977 16.307 84.5181 15.8824 85.0156 15.5651C85.5131 15.2479 86.0752 15.0461 86.6607 14.9746C88.0086 14.9746 88.9071 16.2795 89.4013 16.9543C92.1758 20.7788 96.0505 26.2681 99.791 31.5774C103.531 36.8866 107.383 42.3534 110.147 46.2003L109.237 46.8528C106.473 43.0395 102.61 37.5503 98.8701 32.2297C95.1297 26.9092 91.2658 21.42 88.4915 17.6068C87.9748 16.8868 87.3683 16.122 86.627 16.0995C85.8857 16.077 85.2567 16.7632 84.6614 17.5055C78.6636 25.0645 65.4999 47.6739 65.3651 47.8989Z" fill="#F7F2ED"/>
<path d="M108.439 106.02C101.757 97.0975 94.3731 88.7243 86.3575 80.9808C85.8572 80.3498 85.148 79.9189 84.3581 79.766C83.4259 79.6985 82.6172 80.6546 81.8872 81.6557L66.1625 103.174L65.2528 102.51L80.9774 80.9808C81.8872 79.7435 82.9205 78.5849 84.347 78.6411C85.4206 78.7863 86.3996 79.3328 87.0876 80.1709C95.147 87.9564 102.572 96.3744 109.293 105.345L108.439 106.02Z" fill="#F7F2ED"/>
<path d="M66.6456 164.05L65.6908 163.454C71.6999 153.645 78.1583 143.949 84.8749 134.636L85.2456 134.119L85.7173 134.546C90.7039 139.298 95.2458 144.498 99.2856 150.08C102.161 153.814 105.126 157.673 108.821 161.7L107.99 162.464C104.261 158.404 101.251 154.512 98.3984 150.766C94.5065 145.426 90.1625 140.432 85.414 135.84C78.8434 144.939 72.531 154.433 66.6456 164.05Z" fill="#F7F2ED"/>
<path d="M68.7796 222.092L67.8025 221.541C73.1644 212.182 79.3117 203.298 86.1778 194.984L86.6159 194.455L106.721 219.483L105.845 220.179L86.6047 196.232C79.9564 204.341 73.9942 212.992 68.7796 222.092Z" fill="#F7F2ED"/>
<path d="M0.456257 224.465C0.0745564 224.467 -0.304873 224.406 -0.666931 224.285C-1.31838 224.06 -2.65497 222.902 -4.63178 220.843C-7.9483 217.422 -10.7962 213.576 -13.1006 209.403C-15.3731 205.306 -18.1712 201.525 -21.4234 198.155L-20.6147 197.379C-17.2989 200.803 -14.4477 204.65 -12.1347 208.819C-9.87083 212.918 -7.07612 216.701 -3.82309 220.067C-2.79953 221.272 -1.61678 222.332 -0.307503 223.216C1.08525 223.7 2.73633 222.733 4.57836 220.348C12.216 210.517 17.7758 202.868 21.561 196.974L22.5044 197.581C18.6968 203.498 13.1259 211.17 5.46568 221.046C3.70228 223.341 2.03996 224.465 0.456257 224.465Z" fill="#F7F2ED"/>
<path d="M0.298923 170.158C-0.633322 170.158 -8.68655 160.529 -23.5015 141.655L-22.6254 140.957C-14.4485 151.339 -2.0373 166.829 0.254004 168.865C4.3698 164.154 8.2172 159.217 11.7779 154.073C15.4385 148.758 19.4143 143.669 23.6837 138.832L24.5036 139.596C20.2717 144.403 16.3261 149.454 12.6877 154.725C9.01985 160.038 5.04051 165.127 0.770662 169.967L0.590965 170.158H0.298923Z" fill="#F7F2ED"/>
<path d="M1.43309 112.611L-23.5467 82.1726L-22.6817 81.464L1.33199 110.71C3.57837 107.222 14.6754 90.4627 23.7396 80.7666L24.5595 81.5315C14.5182 92.307 1.98345 111.768 1.84867 111.902L1.43309 112.611Z" fill="#F7F2ED"/>
<path d="M1.21966 55.7278H1.14103C-0.195564 55.7278 -1.10534 54.423 -1.59954 53.7481C-4.37382 49.9236 -8.23759 44.4344 -11.9778 39.1252C-15.718 33.8159 -19.5818 28.3379 -22.3448 24.5021L-21.435 23.8498C-18.6608 27.6742 -14.797 33.1634 -11.0568 38.4727C-7.31657 43.782 -3.4528 49.26 -0.689758 53.0957C-0.173094 53.8269 0.433435 54.5917 1.18597 54.6142C1.9385 54.6367 2.54502 53.9505 3.14031 53.2081C9.13813 45.6492 22.3019 23.0399 22.4367 22.8374L23.4139 23.3998C23.2791 23.6248 10.0704 46.3129 4.01639 53.928C3.70808 54.4129 3.29834 54.8249 2.81547 55.1357C2.33259 55.4464 1.78813 55.6485 1.21966 55.7278Z" fill="#F7F2ED"/>
</g>
</g>
<defs>
<clipPath id="clip0_1_747">
<rect width="281.235" height="205.937" fill="white" transform="translate(0.809845 0.409668)"/>
</clipPath>
</defs>
</svg>
