<svg width="281" height="241" viewBox="0 0 281 241" fill="none" xmlns="http://www.w3.org/2000/svg">
<g clip-path="url(#clip0_1_595)">
<mask id="mask0_1_595" style="mask-type:luminance" maskUnits="userSpaceOnUse" x="0" y="0" width="281" height="241">
<path d="M280.33 0.0292969H0.329834V240.029H280.33V0.0292969Z" fill="white"/>
</mask>
<g mask="url(#mask0_1_595)">
<path d="M187.626 9.13394C190.414 8.11357 193.603 10.0021 196.396 9.97963C200.436 9.97963 204.519 9.93447 208.581 9.80478C214.473 9.61314 220.281 8.60403 226.292 9.46656C228.365 9.75972 231.136 9.10016 233.558 8.74497C236.51 8.31088 239.253 9.36514 242.115 9.30869C247.449 9.21856 252.063 12.0485 257.093 13.0238C260.248 13.6383 262.8 15.0308 265.396 16.5923C268.298 18.3344 269.086 20.4766 268.089 23.7069C267.55 25.1815 267.247 26.7323 267.194 28.3015C266.067 28.5608 265.312 27.6926 264.433 27.2529C263.481 26.6741 262.393 26.3571 261.278 26.334C260.811 26.334 260.287 26.4298 260.152 26.9597C260.017 27.4897 260.513 27.7491 260.93 27.9294C262.071 28.3175 263.142 28.8887 264.101 29.6207C264.713 30.1166 265.221 30.7303 265.592 31.4255C265.964 32.1207 266.192 32.8834 266.264 33.6684C265.374 38.0895 264.152 42.4371 262.608 46.6741C261.256 47.8693 260.417 46.6291 259.477 45.9864C258.253 45.152 257.223 43.9794 255.662 43.7314C255.099 43.6467 254.457 43.6355 254.187 44.2219C253.866 44.904 254.485 45.2309 254.953 45.5015C256.732 46.5219 258.564 47.469 259.791 49.2223C260.434 50.1412 261.155 51.015 261.099 52.2384C260.073 56.5962 259.921 61.1963 257.589 65.2046C256.395 66.0841 255.961 64.8889 255.375 64.3308C254.493 63.3796 253.502 62.5357 252.423 61.8165C251.967 61.5515 251.41 61.0948 250.942 61.6643C250.475 62.2337 250.885 62.7241 251.213 63.1695C252.339 64.7311 253.657 66.1856 254.874 67.6795C255.725 68.7224 256.862 69.6752 256.812 71.2424C255.854 73.4761 255.179 75.8206 254.801 78.2216C254.626 79.5915 254.31 81.0403 252.919 81.8127C250.942 81.9706 249.54 80.4258 247.731 80.0594C246.796 79.8734 245.528 78.9658 245.005 80.1497C244.481 81.3335 245.911 81.6718 246.779 82.1453C248.858 83.2728 251.381 83.9043 252.158 86.6102C252.626 88.7355 251.815 90.6747 251.235 92.6143C250.356 95.5565 250.317 98.6747 249.224 101.556C247.957 102.796 247.224 101.556 246.446 100.885C245.157 99.8187 244.16 98.4036 242.734 97.5023C241.996 97.0223 240.982 96.2001 240.273 97.1974C239.709 98.0259 240.656 98.7707 241.332 99.2045C243.946 100.862 245.59 103.28 247.021 105.935C247.472 106.775 247.95 107.542 247.776 108.541C247.303 111.951 247.212 115.44 245.658 118.62C244.481 119.517 244.013 118.378 243.455 117.774C242.625 116.777 241.669 115.893 240.611 115.141C239.991 114.736 239.23 114.285 238.673 115.141C238.2 115.863 238.837 116.359 239.372 116.72C241.856 118.412 243.1 121.005 244.559 123.485C244.295 129.41 242.233 134.969 241.061 140.713C238.718 140.962 237.682 138.763 235.884 137.951C235.321 137.692 234.972 136.919 234.195 137.179C234.025 137.261 233.892 137.404 233.82 137.578C233.747 137.752 233.74 137.947 233.8 138.125C233.952 138.965 234.578 139.073 235.287 139.011C235.761 138.972 236.414 138.932 236.499 139.417C236.831 142.05 239.833 143.572 239.411 146.498C238.285 150.246 237.895 154.215 235.93 157.693C234.409 158.505 233.327 157.057 231.987 156.921C231.175 156.843 230.088 156.442 229.823 157.485C229.587 158.398 230.747 158.449 231.372 158.731C232.753 159.357 234.116 159.965 234.527 161.634C233.749 166.578 232.578 171.393 229.84 175.688C228.461 176.224 227.615 175.125 226.567 174.623C225.644 174.183 224.398 173.591 223.829 174.657C223.199 175.824 224.725 175.976 225.407 176.45C226.748 177.391 228.454 177.916 228.956 179.759C228.111 184.309 226.483 188.61 224.832 192.911C223.706 193.717 222.973 192.669 222.101 192.302C221.61 192.1 221.075 191.581 220.602 192.066C220.005 192.675 220.557 193.277 220.923 193.757C221.847 195.02 222.962 196.158 223.385 197.737C223.34 202.359 221.915 206.593 219.723 210.613C218.89 211.069 218.107 210.675 217.29 210.494C216.36 210.292 215.087 209.367 214.557 210.624C214.028 211.881 215.476 212.191 216.377 212.591C217.278 212.992 218.247 213.483 218.58 214.593C217.632 219.136 216.141 223.549 214.135 227.734C213.065 228.557 212.236 227.531 211.318 227.35C210.783 227.249 210.192 226.945 209.826 227.581C209.46 228.219 209.893 228.647 210.282 229.059C211.217 230.057 212.637 230.621 212.986 232.137C212.608 234.549 212.614 237.076 211.003 239.139C161.657 239.139 154.379 239.979 105.033 240.046C103.106 240.046 0.346769 238.756 0.352402 236.833C0.414366 157.936 45.0794 77.7875 60.7113 0.204145C61.2746 0.322533 65.2178 -0.196118 66.2656 0.204145C71.7578 1.58533 84.8154 0.0575701 94.9325 2.17164C98.6001 2.91579 172.557 14.6587 187.626 9.13394Z" fill="#FEBD00"/>
<path d="M212.67 231.906C211.73 231.201 210.823 230.445 209.854 229.797C209.318 229.502 208.917 229.011 208.737 228.426C208.557 227.841 208.609 227.209 208.885 226.663C209.448 225.609 210.62 226.392 211.578 226.663C212.434 226.9 212.991 227.503 213.701 227.898C215.701 228.461 216.63 230.327 218.084 231.562C218.946 232.661 219.498 233.964 220.365 235.069C220.985 236.168 221.915 237.154 221.706 238.569V239.133H217.199C216.36 238.665 216.529 237.442 215.622 237.025C214.152 235.576 213.612 233.642 212.67 231.906Z" fill="#1A3149"/>
<path d="M212.67 231.906C214.868 232.802 214.468 235.457 215.994 236.816C216.124 237.651 216.163 238.462 215.487 239.122H210.98C211.482 236.703 211.764 234.234 212.67 231.906Z" fill="#FDFDFC"/>
<path d="M215.487 239.122C215.656 238.355 215.081 237.43 215.994 236.816C217.092 237.222 216.924 238.282 217.171 239.122H215.487Z" fill="#E9B005"/>
<path d="M221.694 238.559C221.132 237.43 220.568 236.354 219.965 235.254C220.484 231.494 221.819 227.982 223.181 224.476C224.573 223.805 224.748 224.769 224.916 225.756C225.063 226.584 225.159 227.632 226.292 227.446C227.423 227.261 227.649 226.274 227.615 225.282C227.514 222.86 226.917 220.485 225.863 218.303C225.424 217.367 224.916 216.476 225.108 215.394C225.668 213.759 226.059 212.073 226.275 210.359C226.444 209.317 226.477 208.104 227.627 207.541C228.927 207.377 230.488 208.86 231.468 207.467C232.448 206.075 231.237 204.648 230.804 203.307C230.465 202.27 229.761 201.351 229.812 200.183C230.747 197.191 231.766 194.236 233.828 191.778C236.713 190.972 236.994 190.543 236.684 187.674C236.543 186.372 235.896 185.159 235.986 183.813C236.69 179.798 238.183 175.998 239.208 172.075C240.611 170.948 239.991 169.256 240.521 167.858C242.244 160.693 244.255 153.607 246.108 146.475C247.236 142.202 247.668 137.839 248.531 133.509C248.728 132.382 249.393 131.412 249.753 130.329C251.668 121.31 254.485 112.509 256.738 103.568C257.257 101.504 258.169 99.5318 258.299 97.3665C258.38 97.0998 258.489 96.8429 258.625 96.6003C259.622 95.2189 259.577 93.4661 260.276 91.9887C260.716 91.0412 260.777 89.7843 262.078 89.4403C262.557 89.4403 262.642 90.354 262.698 90.1398C263.419 87.2869 265.34 84.5978 264.016 81.4464C263.396 79.1013 264.456 77.0041 265.143 74.9408C267.908 66.9355 270.212 58.7893 272.297 50.598C273.075 47.5594 273.26 44.3517 274.083 41.2961C274.46 39.8924 274.426 38.2913 275.772 37.2822C280.78 40.2644 281.355 41.499 278.854 46.3022C278.736 46.5333 278.612 46.9054 278.713 47.0915C281.017 51.438 277.491 55.1306 277.378 59.1952C276.736 61.6982 276.347 64.269 274.905 66.524C276.313 64.269 276.826 61.7321 277.372 59.1952C279.547 60.2381 278.668 62.3071 278.319 63.5868C276.066 71.7387 274.285 80.0315 270.996 87.8844C269.564 91.3007 268.658 94.9541 267.756 98.5621C266.556 103.331 264.196 107.706 263.25 112.571C262.586 116.032 261.244 119.336 260.535 122.809C260.039 125.216 258.282 127.054 258.068 129.574C257.882 131.744 258.834 133.763 258.068 136.079C256.766 140.11 256.068 144.299 254.58 148.335C252.435 154.148 250.857 160.174 249.241 166.173C247.331 173.242 246.255 180.514 244.537 187.595C242.78 194.839 241.433 202.19 239.467 209.35C237.777 215.416 230.127 230.007 228.5 236.732C228.218 237.893 227.66 238.535 226.41 238.513C224.866 238.53 223.255 238.559 221.694 238.559Z" fill="#E6E6E6"/>
<path d="M262.073 89.3787C261.064 91.4062 260.36 93.5716 259.983 95.8054C259.853 96.5769 259.69 97.0231 258.856 96.9325C257.617 93.8605 257.307 90.5787 256.631 87.3487C256.997 84.6258 258.13 82.1341 259.042 79.5746C259.549 78.9117 260.196 78.3672 260.935 77.9792C262.377 77.3535 262.281 76.2372 261.949 74.9857C261.616 73.7342 260.98 72.5897 261.25 71.248C262.151 68.1869 263.064 65.12 264.54 62.2675C268.253 60.4127 266.901 57.1598 266.749 54.234C266.884 49.9044 268.709 45.8342 268.72 41.4876C271.109 40.7604 270.252 38.4659 270.923 36.91C272.269 33.7191 272.156 30.1449 273.891 26.9654C274.77 25.3531 275.153 25.883 275.981 26.5369C277.671 27.8674 278.735 29.5699 277.181 31.4641C275.626 33.3583 276.949 35.5118 275.818 37.2708C274.127 42.7278 273.322 48.4105 272.15 53.9747C270.81 60.3225 268.348 66.2982 266.945 72.6179C266.286 75.5889 264.788 78.4922 264.365 81.638C263.532 84.2481 263.695 87.0669 262.073 89.3787Z" fill="#FEBD00"/>
<path d="M270.906 36.9326C271.661 38.0601 271.362 39.5033 271.429 40.6702C271.548 42.7392 269.768 40.5462 269.036 41.2341C266.298 40.2531 267.261 37.378 266.168 35.5401C265.852 34.9764 265.881 34.1251 265.751 33.4035C264.946 30.9963 263.589 29.2712 260.878 28.7582C259.977 28.5835 258.417 28.3298 258.884 26.7005C259.273 25.3419 260.574 25.3757 261.639 25.511C263.796 25.7703 265.537 26.9485 267.176 28.2959C269.356 30.7708 270.438 33.7192 270.906 36.9326Z" fill="#1B3149"/>
<path d="M177.001 115.457C178.618 114.296 180.116 113.073 182.414 113.546C183.891 113.851 184.724 112.137 186.048 111.54C192.205 108.755 198.858 107.881 205.15 105.773C207.927 104.842 209.499 106.189 211.065 107.965C212.834 109.972 213.183 112.65 214.365 114.933C216.269 117.752 217.182 121.038 217.864 124.309C218.332 126.53 217.019 128.175 215.165 129.416C211.02 132.195 206.293 133.605 201.736 135.46C197.793 137.077 193.737 138.52 189.783 140.161C187.692 141.029 185.597 141.779 183.282 141.176C181.654 139.975 180.387 138.577 180.556 136.367C180.956 135.194 182.06 135.07 183.018 134.772C190.543 132.421 197.376 128.57 204.271 124.815C202.868 124.872 201.498 125.258 200.272 125.943C195.472 128.237 190.453 130.025 185.626 132.257C183.558 133.21 181.395 134.242 178.95 133.532C177.446 128.458 174.619 123.677 175.655 118.068C175.846 117.047 176.038 116.066 177.001 115.457Z" fill="#41259E"/>
<path d="M180.956 136.271C181.097 138.091 182.392 139.343 183.209 140.837C179.829 143.656 175.542 144.445 171.526 145.827C169.943 146.103 168.101 145.155 166.811 146.819C166.564 146.895 166.303 146.92 166.045 146.891C165.788 146.864 165.538 146.783 165.313 146.655C164.918 146.379 165.07 145.939 164.997 145.567C164.93 145.889 164.952 146.227 164.851 146.554C161.719 148.205 158.356 149.288 155.072 150.556C153.19 151.278 152.66 151.086 151.269 150.235L147.89 149.17C147.14 148.662 145.676 146.779 144.972 146.435C142.07 143.819 141.473 140.539 142.222 136.851C142.617 136.141 145.14 130.774 147.14 129.376C147.467 128.869 156.401 124.59 157.325 124.027C161.105 121.726 165.279 120.311 169.155 118.299C170.174 117.769 175.667 116.072 176.985 115.435C176.055 118.473 175.677 121.467 176.798 124.607C177.824 127.488 178.489 130.487 179.34 133.435C179.417 133.605 179.429 133.797 179.375 133.975C179.322 134.154 179.204 134.307 179.046 134.405C175.667 136.874 171.543 138.25 167.78 139.552C164.316 140.753 160.524 141.547 156.959 142.833C155.268 142.748 153.472 142.308 152.171 144.079C153.123 144 153.781 143.171 154.723 143.273C161.387 142.269 167.938 140.927 174.14 138.115C176.275 137.184 178.314 135.493 180.956 136.271Z" fill="#EF6CD2"/>
<path d="M151.264 150.235C152.148 150.089 161.899 147.163 164.67 146.379C164.697 146.325 164.738 146.28 164.788 146.246C164.837 146.213 164.895 146.194 164.955 146.189C165.014 146.186 165.075 146.197 165.128 146.224C165.182 146.25 165.228 146.29 165.262 146.34L166.924 146.413C168.287 145.488 169.965 145.815 171.43 145.285L183.204 140.826C186.955 141.023 190.143 139.09 193.512 137.973C198.717 136.243 203.579 133.616 208.918 132.127C211.566 131.395 213.848 129.405 216.107 127.86C218.647 126.124 217.233 123.029 216.163 120.711C215.41 118.833 214.809 116.897 214.366 114.922C218.016 116.461 219.436 120.114 221.221 123.085C222.236 124.776 221.385 128.023 219.638 129.782C217.425 132.037 216.365 135.116 213.707 137.032C212.93 137.596 212.22 138.65 211.313 139.174C206.035 142.224 200.706 144.941 194.689 146.616C188.673 148.29 182.618 149.683 176.72 151.69C174.467 152.456 172.247 153.189 169.791 153.189C164.557 153.189 159.652 155.315 154.458 155.72C151.433 155.957 151.151 154.824 150.582 153.009C150.588 151.493 151.371 151.205 151.264 150.235Z" fill="#FE8C00"/>
<path d="M225.446 215.602C226.652 218.528 227.964 221.369 228.387 224.622C228.685 226.877 227.745 228.517 226.088 228.664C224.635 228.788 223.711 227.041 224.398 225.169C224.612 224.605 223.892 224.555 223.446 224.492C223.246 224.366 223.09 224.18 223.001 223.961C222.912 223.741 222.894 223.5 222.951 223.269C223.576 220.788 222.388 218.933 220.906 217.18C220.202 216.126 218.906 215.63 218.303 214.48C217.346 213.962 216.422 213.093 215.42 212.992C213.07 212.744 213.397 211.002 213.729 209.829C214.146 208.397 215.644 209.463 216.613 209.423C217.582 209.384 218.343 210.41 219.43 210.354C220.799 210.072 221.61 211.007 222.511 211.752C223.531 212.997 224.945 213.967 225.446 215.602Z" fill="#1A3149"/>
<path d="M257.054 87.3485C258.124 90.455 258.952 93.6008 258.828 96.9324V96.8701C256.823 99.4977 256.384 99.5253 254.322 97.2088C254.018 96.6319 253.86 95.9893 253.866 95.3368C253.973 92.1786 253.193 89.0533 251.612 86.3169C250.108 83.8645 247.467 82.9344 245.021 82.3029C242.577 81.6716 244.548 80.4483 244.204 79.6083C243.748 78.4807 245.004 78.8528 245.619 78.8923C248.238 79.0727 250.468 80.2397 252.587 81.711C254.84 82.9626 256.564 84.6764 257.054 87.3485Z" fill="#1A3149"/>
<path d="M267.233 54.3076C267.323 55.7621 267.863 57.1263 267.925 58.6203C268.016 60.8133 266.889 61.7942 265.108 62.4199C264.697 62.1928 264.345 61.869 264.085 61.4762C263.825 61.0835 263.664 60.6335 263.616 60.1649C263.171 57.1714 261.965 54.4655 260.642 51.7989C259.29 48.8956 256.924 47.0916 254.096 45.8175C253.397 45.4961 252.547 45.3495 252.885 44.3518C252.994 43.9242 253.241 43.5446 253.587 43.2715C253.933 42.9983 254.359 42.8471 254.8 42.8408C257.014 42.6041 258.073 44.2953 259.611 45.1805C260.478 45.6766 260.963 46.7533 262.112 46.8717C264.765 48.687 266.315 51.2802 267.233 54.3076Z" fill="#1A3149"/>
<path d="M260.62 51.793C261.592 52.5975 262.385 53.5982 262.945 54.7299C263.505 55.8616 263.82 57.0987 263.87 58.3607C263.938 59.8434 264.563 61.1005 265.086 62.4197L261.594 71.6877C260.437 70.9956 259.437 70.0679 258.661 68.9647C257.885 67.8614 257.349 66.6074 257.088 65.2835C258.913 60.9539 259.307 56.2523 260.62 51.793Z" fill="#FEFEFE"/>
<path d="M236.335 184.094C237.338 186.016 237.366 188.08 237.518 190.188C237.653 192.088 235.372 191.507 235.265 192.916L234.11 191.924C232.804 190.865 232.983 189.28 232.645 187.866C232.482 186.862 232.116 185.903 231.57 185.046C230.556 183.22 228.9 181.748 228.511 179.572C227.143 178.099 225.468 176.944 223.604 176.19C222.9 175.88 222.094 175.688 222.477 174.713C222.765 174.025 223.041 173.422 224.128 173.253C226.54 172.881 227.688 174.859 229.457 175.632C231.283 175.971 232.172 177.498 233.339 178.676C234.814 180.238 236.104 181.878 236.335 184.094Z" fill="#1A3149"/>
<path d="M267.233 54.3075L262.124 46.849C263.332 42.3654 264.546 37.8854 265.763 33.4092C266.698 35.2921 267.847 37.1356 267.796 39.3174C267.796 40.3659 268.359 40.7662 269.047 41.2398C269.61 44.0585 268.985 46.787 268.303 49.4479C267.823 51.0382 267.466 52.6627 267.233 54.3075Z" fill="#FEFEFE"/>
<path d="M230.15 200.381C231.012 202.253 232.189 204.017 232.353 206.142C232.409 206.92 233.653 208.003 232.24 208.448C231.079 208.814 229.666 209.226 228.522 208.126C228.331 207.941 228.15 207.743 227.958 207.563C226.702 205.427 226.629 202.749 224.844 200.854C224.059 199.83 223.402 198.713 222.889 197.528C222.124 196.386 221.275 195.302 220.348 194.286C219.3 193.283 219.036 191.925 219.712 191.096C220.551 190.064 221.706 191.096 222.607 191.716C223.21 192.134 223.796 192.584 224.393 193.024C225.976 193.301 226.494 194.828 227.559 195.708C228.324 197.337 229.965 198.459 230.15 200.381Z" fill="#1A3149"/>
<path d="M257.099 65.2838L261.605 71.688C261.956 73.1744 262.389 74.6406 262.9 76.0796C263.503 78.0527 262.816 78.3628 261.211 78.3346C260.084 78.7969 259.065 78.7969 258.27 77.7145C257.457 75.4731 256.804 73.1766 256.316 70.8424C254.766 68.2435 252.654 66.0843 250.683 63.8237C249.748 62.7469 249.461 61.5123 250.148 60.6384C250.835 59.7647 251.933 60.599 252.812 61.1458C254.536 62.2226 255.718 63.8519 257.099 65.2838Z" fill="#1A3149"/>
<path d="M250.294 130.617C250.857 131.857 248.998 132.201 249.263 133.34C246.7 134.073 246.154 133.628 245.084 129.957C244.132 127.905 244.334 125.684 244.188 123.519C242.075 121.405 241.123 118.287 238.16 116.844C237.938 116.704 237.75 116.514 237.612 116.289C237.474 116.065 237.389 115.812 237.364 115.549C237.339 115.287 237.374 115.022 237.468 114.776C237.561 114.529 237.708 114.308 237.901 114.127C238.292 113.789 238.792 113.604 239.309 113.604C239.826 113.604 240.326 113.789 240.717 114.127C242.416 115.471 243.932 117.033 245.224 118.772C247.528 119.685 247.201 122.104 248.119 123.812C249.9 125.746 250.452 128.068 250.294 130.617Z" fill="#1B3149"/>
<path d="M247.156 108.157C246.056 104.724 243.852 101.751 240.887 99.7007C240.419 99.4101 239.98 99.0758 239.574 98.7025C239.255 98.3594 239.058 97.9203 239.014 97.4536C238.97 96.9861 239.082 96.5176 239.332 96.1212C239.721 95.4447 240.656 95.7718 241.377 95.9745C243.585 96.5941 244.79 98.4776 246.356 99.9203C247.106 100.603 247.821 101.33 248.554 102.035C250.181 103.134 250.806 104.994 251.933 106.477C252.316 107.311 252.772 108.112 253.06 108.98C253.933 111.528 253.127 112.655 250.181 113.084C248.954 111.557 247.477 110.209 247.156 108.157Z" fill="#1B3149"/>
<path d="M251.42 106.449C250.14 105.205 249.159 103.686 248.553 102.006C249.06 96.6728 251.179 91.6559 251.601 86.3057C254.812 88.6396 254.322 92.1688 254.474 95.455C254.439 95.8799 254.555 96.303 254.801 96.6506C254.474 100.196 253.9 103.647 251.42 106.449Z" fill="#FEFEFD"/>
<path d="M240.904 168.078C240.96 169.025 240.639 169.91 241.039 170.936C241.49 172.103 240.667 172.176 239.782 171.697C237.89 171.781 236.482 171.567 237.276 168.991C237.461 168.388 236.053 167.785 235.913 166.832C235.422 165.045 234.386 163.45 234.149 161.573C233.299 160.124 231.97 159.532 230.37 159.148C229.548 158.95 228.156 158.781 228.454 157.288C228.753 155.794 229.992 155.917 231.079 155.929C232.77 155.929 234.11 157.096 235.653 157.621C237.473 158.026 238.149 159.633 239.129 160.924C240.29 163.173 241.134 165.485 240.904 168.078Z" fill="#1A3149"/>
<path d="M239.196 146.131C239.157 143.589 235.935 142.591 236.16 139.879C236.205 139.316 235.676 139.547 235.361 139.733C235.163 139.886 234.929 139.986 234.681 140.022C234.434 140.058 234.18 140.029 233.948 139.939C233.714 139.847 233.508 139.698 233.35 139.503C233.192 139.309 233.087 139.077 233.045 138.83C232.809 137.968 232.414 136.688 233.58 136.062C234.747 135.437 235.225 136.389 235.98 137.094C237.494 138.39 239.076 139.606 240.717 140.736C242.317 141.266 242.481 142.924 243.337 144.045C244.525 146.019 244.773 148.205 244.734 150.433C244.734 150.994 244.581 151.544 244.292 152.024C244.004 152.505 243.589 152.898 243.095 153.161C241.968 153.787 241.196 153.014 240.537 152.181C239.788 150.243 239.337 148.204 239.196 146.131Z" fill="#1B3149"/>
<path d="M218.298 214.475C219.537 214.858 220.619 215.45 221.199 216.701C221.763 218.195 221.25 219.65 220.861 221.031C220.034 223.77 219.402 226.564 218.968 229.391C218.839 230.383 218.709 231.454 217.476 231.798L213.679 227.886C215.226 223.418 216.765 218.947 218.298 214.475Z" fill="#FEFEFD"/>
<path d="M256.299 70.8252C258.108 72.787 258.091 75.4141 258.828 77.7705C259.099 78.3344 259.774 78.7289 259.453 79.4957C259.188 82.275 257.764 84.6935 257.065 87.3487L252.558 81.6774C253.854 80.595 254.096 78.9319 254.204 77.5168C254.401 75.0702 255.291 72.973 256.299 70.8252Z" fill="#FEFEFE"/>
<path d="M234.149 161.572C235.304 163.212 236.369 164.892 236.509 166.972C236.352 170.394 236.577 173.884 234.707 176.996C234.234 177.791 233.935 178.727 232.922 179.042L229.479 175.66C231.604 171.145 232.865 166.353 234.149 161.572Z" fill="#FEFEFD"/>
<path d="M227.237 196.011C225.959 195.323 225.294 194.066 224.421 193.024C225.788 188.536 227.158 184.052 228.533 179.572C229.621 181.225 231.231 182.527 231.834 184.499C231.148 188.623 229.58 192.55 227.237 196.011Z" fill="#FEFEFD"/>
<path d="M242.599 144.005C241.968 142.912 241.343 141.812 240.718 140.719C241.281 137.19 241.647 133.65 242.971 130.244C243.794 128.147 243.242 125.655 244.177 123.479C244.907 125.523 245.345 127.66 245.478 129.827C245.596 130.842 245.963 131.851 245.596 132.866C244.571 135.684 244.39 138.69 243.946 141.638C243.816 142.539 244.098 143.831 242.599 144.005Z" fill="#FEFDFC"/>
<path d="M239.196 146.132C240.887 147.733 240.324 149.954 240.836 151.887C240.887 155.134 240.453 158.258 238.47 160.981C237.535 159.853 236.595 158.726 235.653 157.598C237.084 153.854 237.231 149.711 239.196 146.132Z" fill="#FEFEFD"/>
<path d="M247.156 108.157C248.019 109.758 249.675 110.801 250.26 112.588C249.46 116.399 249.472 120.419 247.41 123.914L246.621 123.751C247.624 121.671 245.877 120.367 245.18 118.8L247.156 108.157Z" fill="#FDFDFD"/>
<path d="M222.894 197.528C224.128 198.092 224.477 199.338 225.148 200.347C225.56 201.077 225.669 201.939 225.452 202.749C224.658 205.292 223.999 207.876 223.48 210.489C223.448 210.858 223.308 211.209 223.079 211.499C222.85 211.79 222.541 212.007 222.19 212.124L219.419 210.359C220.889 206.166 222.646 202.072 222.894 197.528Z" fill="#FEFEFE"/>
<path d="M217.476 231.804C218.123 229.042 218.742 226.268 219.419 223.517C219.982 221.262 220.602 218.973 221.199 216.707C223.858 218.747 224.246 221.448 223.452 224.492C222.528 228.151 221.824 231.889 219.976 235.254C218.596 234.493 218.602 232.739 217.476 231.804Z" fill="#FEBD01"/>
<path d="M247.41 123.914C248.288 120.12 248.39 116.134 250.26 112.587C252.908 111.776 253.172 111.415 252.462 109.279C252.147 108.326 251.42 107.52 251.42 106.459C252.547 103.194 253.674 99.9297 254.8 96.6675C255.988 99.9261 257.482 97.3555 258.862 96.8764C259.092 101.127 256.969 104.825 256.045 108.805C255.195 112.481 254.356 116.173 253.15 119.753C251.944 123.333 251.252 127.009 250.288 130.627C249.37 128.367 249.308 125.746 247.41 123.914Z" fill="#FEBD01"/>
<path d="M238.464 160.981L240.83 151.887C241.54 152.181 241.9 153.663 242.796 152.913C243.568 152.265 244.413 151.289 244.176 150.021C243.804 147.981 243.821 145.838 242.594 144.022C243.23 143.572 243.112 142.838 243.156 142.236C243.354 137.99 244.875 134.005 245.494 129.833C246.351 131.434 246.542 133.746 249.268 133.323C248.17 140.942 246.545 148.477 244.407 155.873C243.444 159.255 242.103 162.604 241.929 166.189C241.843 166.924 241.48 167.597 240.915 168.072C239.816 165.806 239.934 163.123 238.464 160.981Z" fill="#FEBD01"/>
<path d="M227.237 196.012C228.541 192.09 230.068 188.246 231.812 184.5C234.189 186.484 233.057 189.546 234.11 191.936L230.167 200.392C229.3 198.853 227.396 198.013 227.237 196.012Z" fill="#FEBD01"/>
<path d="M232.922 179.043C235.332 175.379 235.248 170.975 236.509 166.974C237.18 167.898 237.721 168.76 237.495 170.074C237.197 171.832 239.461 170.503 239.782 171.697C239.169 175.982 237.637 180.007 236.335 184.1L232.922 179.043Z" fill="#FDBD01"/>
<path d="M222.196 212.118L225.154 200.341C226.108 201.276 226.852 202.404 227.338 203.649C227.823 204.894 228.038 206.228 227.97 207.563C227.116 208.782 226.696 210.253 226.776 211.74C226.82 213.148 226.35 214.524 225.452 215.608C224.111 214.683 223.176 213.38 222.196 212.118Z" fill="#FEBD01"/>
<path d="M262.073 89.3777C262.884 86.8243 262.377 83.8816 264.326 81.666C264.89 81.7505 265.611 81.9423 265.452 82.5962C264.698 85.3642 264.968 88.5099 262.552 90.7315C261.899 90.4489 262.321 89.7955 262.073 89.3777Z" fill="#F4F3F2"/>
<path d="M277.4 59.2176C277.693 62.3295 276.274 65.0073 275.187 67.7697C275.018 68.1981 274.905 68.7506 274.274 68.5026C273.531 68.1981 273.71 67.578 274.049 67.1044C275.643 64.6747 276.02 61.7319 277.428 59.2119L277.4 59.2176Z" fill="#F7F7F7"/>
<path d="M261.509 95.7993C261.064 94.8189 260.868 93.9842 261.982 93.1558C261.791 94.2153 261.65 95.0046 261.509 95.7993Z" fill="#F3F3F3"/>
<path d="M259.453 79.4956L258.828 77.7705C259.391 79.0502 260.546 77.5281 261.194 78.3342C261.017 78.6525 260.767 78.9238 260.464 79.1258C260.162 79.3278 259.815 79.4545 259.453 79.4956Z" fill="#E0E2E2"/>
<path d="M156.75 142.676C160.091 140.476 163.617 138.909 167.764 139.49C167.853 139.49 168.005 139.547 168.034 139.49C170.816 135.617 176.151 136.514 179.356 133.436C183.891 132.156 188.132 130.199 192.448 128.322C196.143 126.716 199.9 125.041 203.759 123.728C204.435 123.497 205.325 123.892 206.975 124.111C198.272 129.269 189.93 133.402 180.956 136.249C176.308 138.024 171.746 140.116 166.98 141.48C163.556 142.461 160.018 143.172 156.537 144.028C155.821 144.209 155.05 144.349 154.486 143.617C154.998 142.754 155.861 142.681 156.75 142.676Z" fill="#FEFDFE"/>
<path d="M156.75 142.676C156.124 143.232 155.333 143.57 154.497 143.639C153.371 144.107 152.638 145.432 151.163 145.139C151.94 142.022 153.815 141.187 156.75 142.676Z" fill="#FDF4FB"/>
<path d="M171.43 145.297C170.033 146.097 168.416 146.019 166.924 146.424C167.836 143.679 169.92 145.635 171.43 145.297Z" fill="#F87B77"/>
<path d="M165.262 146.34L164.67 146.379C164.71 145.365 164.738 144.349 166 143.803C166.484 144.925 165.009 145.404 165.262 146.34Z" fill="#F372B2"/>
<path d="M166.687 127.048C167.03 126.304 167.374 125.797 168.112 125.876C168.22 125.876 168.422 126.343 168.355 126.485C168.05 127.094 167.599 127.454 166.687 127.048Z" fill="#F175BE"/>
</g>
</g>
<defs>
<clipPath id="clip0_1_595">
<rect width="280" height="240" fill="white" transform="translate(0.329834 0.0292969)"/>
</clipPath>
</defs>
</svg>
