<svg width="735" height="970" viewBox="0 0 735 970" fill="none" xmlns="http://www.w3.org/2000/svg">
<mask id="mask0_1_476" style="mask-type:alpha" maskUnits="userSpaceOnUse" x="-183" y="155" width="737" height="731">
<path d="M-52.7745 236.706L44.2314 470.901L-182.669 571.341L-107.675 752.39L132.485 651.445L229.337 885.268L424.829 804.292L327.702 569.808L553.926 471.605L477.198 286.368L236.547 387.244L138.745 155.854L-52.7745 236.706Z" fill="#FFAC00"/>
</mask>
<g mask="url(#mask0_1_476)">
<path d="M-52.7745 236.706L44.2314 470.901L-182.669 571.341L-107.675 752.39L132.485 651.445L229.337 885.268L424.829 804.292L327.702 569.808L553.926 471.605L477.198 286.368L236.547 387.244L138.745 155.854L-52.7745 236.706Z" fill="#FF8032"/>
<path d="M366.445 731.127C352.388 736.949 338.231 742.53 324.055 747.808L323.055 745.392C352.751 734.28 382.389 721.947 411.173 708.694L412.173 711.11C397.236 718.033 381.889 724.729 366.445 731.127Z" fill="#FFAC00"/>
<path d="M359.38 714.071C345.481 719.829 331.481 725.344 317.471 730.581L316.47 728.165C345.831 717.193 375.065 705.026 403.703 691.863L404.704 694.279C389.812 701.126 374.646 707.747 359.38 714.071Z" fill="#FFAC00"/>
<path d="M345.228 679.967C331.664 685.587 317.988 690.996 304.314 696.095L303.313 693.679C331.992 682.96 360.622 671.044 388.307 658.303L389.307 660.719C374.989 667.301 360.135 673.793 345.228 679.967Z" fill="#FFAC00"/>
<path d="M352.293 697.024C338.572 702.707 324.729 708.158 310.876 713.33L309.875 710.914C338.878 700.09 367.866 688.027 395.988 675.075L396.989 677.491C382.39 684.218 367.402 690.765 352.293 697.024Z" fill="#FFAC00"/>
<path d="M338.164 662.912C324.734 668.475 311.253 673.785 297.719 678.845L296.718 676.429C325.052 665.824 353.346 654.048 380.839 641.415L381.84 643.831C367.576 650.418 352.936 656.793 338.164 662.912Z" fill="#FFAC00"/>
<path d="M324.055 747.808C294.313 758.939 263.776 769.098 233.278 778.022L232.501 775.513C262.909 766.626 293.437 756.443 323.112 745.341L324.055 747.808Z" fill="#FFAC00"/>
<path d="M317.47 730.581C287.952 741.619 257.85 751.626 227.73 760.451L226.953 757.942C257.039 749.159 287.176 739.11 316.537 728.138L317.47 730.581Z" fill="#FFAC00"/>
<path d="M304.331 696.201C275.607 706.939 246.107 716.752 216.754 725.344L215.978 722.835C245.374 714.224 274.83 704.43 303.554 693.692L304.331 696.201Z" fill="#FFAC00"/>
<path d="M310.932 713.279C281.873 724.154 252.026 734.083 222.229 742.803L221.453 740.294C251.195 731.569 280.996 721.659 309.989 710.81L310.932 713.279Z" fill="#FFAC00"/>
<path d="M297.719 678.844C269.317 689.477 240.163 699.176 211.069 707.689L210.291 705.18C239.331 696.662 268.329 687.027 296.786 676.401L297.719 678.844Z" fill="#FFAC00"/>
<path d="M135.324 816.523L79.5658 846.7L80.7763 849.017L136.535 818.84L135.324 816.523Z" fill="#FFAC00"/>
<path d="M126.883 800.13L71.1249 830.307L72.3341 832.624L128.094 802.447L126.883 800.13Z" fill="#FFAC00"/>
<path d="M110.022 767.332L54.2632 797.509L55.4724 799.826L111.232 769.649L110.022 767.332Z" fill="#FFAC00"/>
<path d="M118.442 783.738L62.6827 813.915L63.8932 816.23L119.652 786.053L118.442 783.738Z" fill="#FFAC00"/>
<path d="M101.569 750.914L45.811 781.091L47.0215 783.408L102.78 753.23L101.569 750.914Z" fill="#FFAC00"/>
<path d="M11.0882 874.499L-47.1741 898.631L-46.1733 901.047L12.089 876.915L11.0882 874.499Z" fill="#FFAC00"/>
<path d="M4.02369 857.442L-54.2386 881.575L-53.2379 883.991L5.02449 859.858L4.02369 857.442Z" fill="#FFAC00"/>
<path d="M615.597 631.838L469.96 699.694L471.05 702.071L616.687 634.214L615.597 631.838Z" fill="#FFAC00"/>
<path d="M607.95 615.038L462.313 682.895L463.403 685.272L609.04 617.415L607.95 615.038Z" fill="#FFAC00"/>
<path d="M592.667 581.47L447.03 649.326L448.12 651.703L593.757 583.846L592.667 581.47Z" fill="#FFAC00"/>
<path d="M600.304 598.242L454.667 666.099L455.756 668.476L601.394 600.619L600.304 598.242Z" fill="#FFAC00"/>
<path d="M584.988 564.658L439.351 632.515L440.44 634.891L586.078 567.035L584.988 564.658Z" fill="#FFAC00"/>
<path d="M387.209 919.219L388.145 921.66L482.039 886.165L481.104 883.724L387.209 919.219Z" fill="#FFAC00"/>
<path d="M373.948 884.75L374.883 887.193L468.776 851.697L467.841 849.255L373.948 884.75Z" fill="#FFAC00"/>
<path d="M380.571 902L381.507 904.441L475.401 868.946L474.466 866.505L380.571 902Z" fill="#FFAC00"/>
<path d="M367.31 867.534L368.245 869.976L462.138 834.481L461.204 832.039L367.31 867.534Z" fill="#FFAC00"/>
<path d="M280.06 920.238L280.995 922.681L374.888 887.184L373.953 884.743L280.06 920.238Z" fill="#FFAC00"/>
<path d="M273.422 903.02L274.357 905.461L368.25 869.966L367.315 867.525L273.422 903.02Z" fill="#FFAC00"/>
<path d="M523.407 396.633L524.342 399.074L618.237 363.579L617.301 361.138L523.407 396.633Z" fill="#FFAC00"/>
<path d="M516.757 379.449L517.692 381.891L611.587 346.396L610.651 343.954L516.757 379.449Z" fill="#FFAC00"/>
<path d="M503.496 344.982L504.432 347.423L598.325 311.928L597.389 309.487L503.496 344.982Z" fill="#FFAC00"/>
<path d="M510.133 362.199L511.068 364.64L604.963 329.145L604.027 326.704L510.133 362.199Z" fill="#FFAC00"/>
<path d="M496.859 327.765L497.794 330.206L591.687 294.711L590.753 292.269L496.859 327.765Z" fill="#FFAC00"/>
<path d="M311.58 503.607L312.449 506.073L415.706 470.773L414.838 468.307L311.58 503.607Z" fill="#FFAC00"/>
<path d="M305.535 486.256L306.403 488.722L409.667 453.44L408.8 450.974L305.535 486.256Z" fill="#FFAC00"/>
<path d="M293.177 451.476L294.043 453.942L397.307 418.661L396.44 416.194L293.177 451.476Z" fill="#FFAC00"/>
<path d="M299.199 468.841L300.067 471.307L403.324 436.006L402.456 433.54L299.199 468.841Z" fill="#FFAC00"/>
<path d="M286.987 434.102L287.855 436.568L391.119 401.287L390.252 398.82L286.987 434.102Z" fill="#FFAC00"/>
<path d="M206.432 541.203L132.278 571.919L133.279 574.334L207.433 543.619L206.432 541.203Z" fill="#FFAC00"/>
<path d="M199.368 524.146L125.213 554.862L126.214 557.278L200.369 526.562L199.368 524.146Z" fill="#FFAC00"/>
<path d="M185.237 490.035L111.084 520.751L112.085 523.166L186.238 492.451L185.237 490.035Z" fill="#FFAC00"/>
<path d="M192.303 507.091L118.149 537.807L119.149 540.222L193.303 509.507L192.303 507.091Z" fill="#FFAC00"/>
<path d="M178.183 473.004L104.029 503.719L105.03 506.134L179.184 475.42L178.183 473.004Z" fill="#FFAC00"/>
<path d="M57.6323 610.646L-88.0046 678.503L-86.9147 680.88L58.7223 613.023L57.6323 610.646Z" fill="#FFAC00"/>
<path d="M49.9863 593.848L-95.652 661.705L-94.562 664.082L51.075 596.225L49.9863 593.848Z" fill="#FFAC00"/>
<path d="M34.6692 560.265L-110.968 628.122L-109.878 630.499L35.7592 562.642L34.6692 560.265Z" fill="#FFAC00"/>
<path d="M42.3164 577.062L-103.321 644.919L-102.232 647.295L43.4064 579.439L42.3164 577.062Z" fill="#FFAC00"/>
<path d="M27.0344 543.434L-118.603 611.291L-117.513 613.668L28.1244 545.811L27.0344 543.434Z" fill="#FFAC00"/>
<path d="M585.964 131.615L511.811 162.331L512.81 164.747L586.965 134.031L585.964 131.615Z" fill="#FFAC00"/>
<path d="M187.984 300.284C173.927 306.105 159.772 311.687 145.605 316.988L144.604 314.572C174.3 303.461 203.937 291.128 232.732 277.899L233.732 280.315C218.805 287.262 203.428 293.886 187.984 300.284Z" fill="#FFAC00"/>
<path d="M180.889 283.155C166.989 288.912 152.99 294.428 138.98 299.666L137.979 297.25C167.33 286.252 196.564 274.087 225.202 260.922L226.202 263.338C211.351 270.282 196.154 276.832 180.889 283.155Z" fill="#FFAC00"/>
<path d="M166.777 249.15C153.213 254.768 139.527 260.155 125.862 265.277L124.862 262.861C153.532 252.117 182.162 240.202 209.857 227.485L210.858 229.901C196.539 236.484 181.685 242.976 166.777 249.15Z" fill="#FFAC00"/>
<path d="M173.862 266.254C160.142 271.938 146.308 277.412 132.455 282.585L131.454 280.169C160.447 269.321 189.435 257.256 217.568 244.33L218.569 246.746C203.939 253.4 188.971 259.996 173.862 266.254Z" fill="#FFAC00"/>
<path d="M159.735 232.085C146.305 237.648 132.779 242.977 119.156 248.073L118.155 245.657C146.511 235.044 174.806 223.268 202.277 210.643L203.278 213.059C189.115 219.576 174.486 225.976 159.735 232.085Z" fill="#FFAC00"/>
<path d="M145.605 316.99C115.841 328.129 85.3031 338.288 54.8271 347.204L54.0498 344.695C84.458 335.807 114.974 325.658 144.67 314.546L145.605 316.99Z" fill="#FFAC00"/>
<path d="M139.02 299.763C109.502 310.801 79.3988 320.807 49.2693 329.607L48.4921 327.1C78.5675 318.293 108.715 308.268 138.076 297.295L139.02 299.763Z" fill="#FFAC00"/>
<path d="M125.84 265.286C97.1155 276.024 67.6152 285.837 38.2542 294.405L37.4769 291.896C66.873 283.287 96.3294 273.491 125.054 262.753L125.84 265.286Z" fill="#FFAC00"/>
<path d="M132.491 282.484C103.432 293.361 73.5861 303.289 43.7894 312.008L43.0121 309.499C72.7636 300.799 102.565 290.889 131.558 280.041L132.491 282.484Z" fill="#FFAC00"/>
<path d="M119.268 248.027C90.8672 258.659 61.7121 268.358 32.6174 276.871L31.8401 274.363C60.8909 265.868 89.889 256.234 118.335 245.583L119.268 248.027Z" fill="#FFAC00"/>
<path d="M437.102 201.019L291.465 268.876L292.555 271.252L438.192 203.395L437.102 201.019Z" fill="#FFAC00"/>
<path d="M429.466 184.245L283.829 252.103L284.918 254.48L430.556 186.622L429.466 184.245Z" fill="#FFAC00"/>
<path d="M414.172 150.651L268.535 218.509L269.625 220.884L415.262 153.028L414.172 150.651Z" fill="#FFAC00"/>
<path d="M421.809 167.425L276.172 235.282L277.261 237.659L422.899 169.802L421.809 167.425Z" fill="#FFAC00"/>
<path d="M406.526 133.855L260.889 201.712L261.979 204.088L407.616 136.232L406.526 133.855Z" fill="#FFAC00"/>
</g>
</svg>
