<svg width="25" height="20" viewBox="0 0 25 20" fill="none" xmlns="http://www.w3.org/2000/svg">
<path d="M8.90625 19.48H0.125V13.1987C0.125 10.6571 0.34375 8.65706 0.78125 7.19873C1.23958 5.71956 2.07292 4.39665 3.28125 3.22998C4.48958 2.06331 6.03125 1.14665 7.90625 0.47998L9.625 4.10498C7.875 4.68831 6.61458 5.50081 5.84375 6.54248C5.09375 7.58415 4.69792 8.96956 4.65625 10.6987H8.90625V19.48ZM23.5625 19.48H14.7812V13.1987C14.7812 10.6362 15 8.62581 15.4375 7.16748C15.8958 5.70915 16.7292 4.39665 17.9375 3.22998C19.1667 2.06331 20.7083 1.14665 22.5625 0.47998L24.2812 4.10498C22.5312 4.68831 21.2708 5.50081 20.5 6.54248C19.75 7.58415 19.3542 8.96956 19.3125 10.6987H23.5625V19.48Z" fill="#E85DCC"/>
</svg>
