<svg xmlns="http://www.w3.org/2000/svg" xmlns:xlink="http://www.w3.org/1999/xlink" width="1200" zoomAndPan="magnify" viewBox="0 0 900 472.499986" height="630" preserveAspectRatio="xMidYMid meet" version="1.0"><defs><g/><clipPath id="838f6a814b"><path d="M 333.394531 0 L 595.617188 0 L 595.617188 262.222656 L 333.394531 262.222656 Z M 333.394531 0 " clip-rule="nonzero"/></clipPath></defs><g clip-path="url(#838f6a814b)"><path fill="#7ed957" d="M 464.585938 0.300781 C 463.074219 0.328125 461.878906 1.566406 461.894531 3.078125 L 461.894531 31.210938 C 461.878906 32.734375 463.105469 33.972656 464.628906 33.972656 C 466.152344 33.972656 467.378906 32.734375 467.363281 31.210938 L 467.363281 3.078125 C 467.378906 1.539062 466.125 0.285156 464.585938 0.300781 Z M 428.804688 9.871094 C 426.738281 9.941406 425.5 12.222656 426.566406 14.003906 L 440.640625 38.359375 C 441.382812 39.714844 443.078125 40.183594 444.402344 39.414062 C 445.726562 38.660156 446.167969 36.949219 445.371094 35.640625 L 431.296875 11.265625 C 430.796875 10.371094 429.828125 9.828125 428.804688 9.871094 Z M 500.367188 9.871094 C 499.371094 9.855469 498.445312 10.398438 497.960938 11.265625 L 483.871094 35.640625 C 483.089844 36.949219 483.53125 38.644531 484.855469 39.414062 C 486.179688 40.183594 487.875 39.699219 488.601562 38.359375 L 502.6875 14.003906 C 503.769531 12.179688 502.476562 9.886719 500.367188 9.871094 Z M 402.878906 36.007812 C 400.015625 35.894531 398.933594 39.714844 401.441406 41.109375 L 425.828125 55.183594 C 427.136719 55.980469 428.832031 55.539062 429.601562 54.214844 C 430.371094 52.890625 429.898438 51.195312 428.546875 50.453125 L 404.175781 36.378906 C 403.777344 36.152344 403.335938 36.023438 402.878906 36.007812 Z M 526.578125 36.007812 C 526.050781 35.980469 525.535156 36.125 525.082031 36.394531 L 500.707031 50.453125 C 499.355469 51.195312 498.886719 52.890625 499.65625 54.214844 C 500.421875 55.539062 502.117188 55.980469 503.429688 55.183594 L 527.816406 41.109375 C 530.238281 39.769531 529.339844 36.09375 526.578125 36.007812 Z M 464.839844 43.160156 C 447.535156 43.160156 433.488281 57.363281 433.488281 74.78125 C 433.488281 78.757812 434.230469 82.558594 435.554688 86.078125 C 412.664062 80.039062 389.003906 77.019531 365.34375 76.992188 C 365.175781 76.949219 365.019531 76.933594 364.847656 76.933594 C 363.335938 76.960938 362.140625 78.199219 362.15625 79.695312 L 362.15625 104.394531 C 358.351562 104.082031 354.519531 103.828125 350.660156 103.640625 C 346 103.414062 341.316406 103.3125 336.601562 103.3125 C 336.429688 103.285156 336.257812 103.257812 336.085938 103.257812 C 334.578125 103.285156 333.367188 104.523438 333.394531 106.035156 L 333.394531 106.046875 C 333.394531 106.078125 333.394531 106.089844 333.394531 106.121094 L 333.394531 231.339844 C 333.394531 231.339844 333.394531 231.339844 333.394531 231.355469 C 333.394531 231.425781 333.410156 231.496094 333.410156 231.570312 C 333.410156 231.597656 333.410156 231.613281 333.410156 231.625 C 333.425781 231.710938 333.453125 231.796875 333.464844 231.882812 C 333.464844 231.882812 333.464844 231.882812 333.464844 231.898438 C 333.480469 231.980469 333.507812 232.066406 333.539062 232.152344 C 333.566406 232.238281 333.609375 232.324219 333.636719 232.410156 C 333.679688 232.496094 333.722656 232.582031 333.765625 232.664062 C 333.851562 232.835938 333.964844 232.980469 334.078125 233.121094 C 334.136719 233.179688 334.191406 233.234375 334.25 233.292969 C 334.265625 233.308594 334.265625 233.308594 334.277344 233.308594 C 334.535156 233.550781 334.835938 233.75 335.160156 233.875 C 335.175781 233.890625 335.175781 233.890625 335.191406 233.890625 C 335.261719 233.917969 335.332031 233.949219 335.417969 233.960938 C 335.433594 233.960938 335.445312 233.976562 335.460938 233.976562 C 335.53125 233.992188 335.601562 234.003906 335.660156 234.019531 C 335.675781 234.035156 335.703125 234.035156 335.71875 234.035156 C 335.789062 234.046875 335.859375 234.046875 335.945312 234.0625 C 335.960938 234.0625 335.972656 234.0625 335.988281 234.0625 C 336.042969 234.0625 336.117188 234.0625 336.171875 234.0625 C 375.957031 234.0625 413.875 241.453125 448.375 254.800781 C 452.546875 259.359375 458.316406 262.25 464.671875 262.25 C 471.039062 262.25 476.792969 259.359375 480.964844 254.800781 C 515.464844 241.453125 553.382812 234.0625 593.183594 234.0625 C 593.195312 234.0625 593.226562 234.0625 593.253906 234.0625 C 593.269531 234.0625 593.28125 234.0625 593.296875 234.0625 C 593.382812 234.0625 593.453125 234.046875 593.523438 234.046875 C 593.539062 234.035156 593.550781 234.035156 593.582031 234.035156 C 593.667969 234.019531 593.738281 234.003906 593.824219 233.992188 C 593.835938 233.976562 593.835938 233.976562 593.851562 233.976562 C 594.023438 233.933594 594.195312 233.875 594.351562 233.804688 C 594.421875 233.761719 594.507812 233.71875 594.578125 233.675781 L 594.59375 233.675781 C 594.75 233.578125 594.890625 233.476562 595.035156 233.347656 C 595.089844 233.292969 595.148438 233.234375 595.203125 233.164062 L 595.21875 233.164062 C 595.289062 233.09375 595.347656 233.023438 595.40625 232.964844 C 595.40625 232.949219 595.40625 232.949219 595.40625 232.949219 C 595.445312 232.878906 595.503906 232.808594 595.546875 232.722656 C 595.589844 232.652344 595.632812 232.566406 595.675781 232.496094 C 595.6875 232.480469 595.6875 232.453125 595.703125 232.4375 C 595.773438 232.28125 595.832031 232.125 595.875 231.953125 L 595.875 231.9375 C 595.890625 231.855469 595.917969 231.769531 595.917969 231.683594 C 595.917969 231.667969 595.917969 231.65625 595.917969 231.625 C 595.929688 231.554688 595.945312 231.484375 595.945312 231.414062 C 595.945312 231.371094 595.945312 231.328125 595.945312 231.285156 C 595.945312 231.242188 595.945312 231.210938 595.945312 231.183594 L 595.945312 105.949219 C 595.945312 105.890625 595.945312 105.835938 595.945312 105.777344 C 595.875 104.3125 594.648438 103.15625 593.183594 103.171875 C 593.039062 103.183594 592.898438 103.199219 592.753906 103.226562 C 588.039062 103.226562 583.339844 103.355469 578.683594 103.570312 C 574.835938 103.742188 571.003906 103.996094 567.1875 104.3125 L 567.1875 79.609375 C 567.199219 79.554688 567.199219 79.496094 567.1875 79.441406 C 567.1875 79.382812 567.1875 79.328125 567.171875 79.269531 C 567.171875 79.253906 567.171875 79.253906 567.171875 79.253906 C 567 77.875 565.820312 76.832031 564.421875 76.847656 C 564.28125 76.863281 564.152344 76.875 564.011719 76.90625 C 540.507812 76.917969 517.003906 79.925781 494.257812 85.878906 C 495.550781 82.402344 496.265625 78.628906 496.265625 74.695312 C 496.265625 57.289062 482.21875 43.074219 464.925781 43.074219 Z M 464.839844 48.628906 C 479.144531 48.628906 490.722656 60.28125 490.722656 74.78125 C 490.722656 78.414062 489.996094 81.847656 488.6875 84.980469 C 487.375 88.113281 485.46875 90.933594 483.132812 93.300781 C 481.949219 94.480469 480.667969 95.550781 479.285156 96.492188 C 477.632812 97.617188 472.789062 101.320312 472.789062 108.070312 C 472.789062 108.183594 472.804688 108.300781 472.816406 108.414062 L 472.816406 111.289062 L 467.347656 111.289062 L 467.347656 91.363281 C 471.992188 90.222656 475.539062 86.21875 475.539062 81.335938 C 475.566406 79.824219 474.34375 78.570312 472.816406 78.570312 C 471.292969 78.570312 470.070312 79.824219 470.082031 81.335938 C 470.082031 84.011719 467.789062 86.261719 464.628906 86.261719 C 461.453125 86.261719 459.15625 84.011719 459.15625 81.335938 C 459.1875 79.796875 457.933594 78.542969 456.394531 78.570312 C 454.886719 78.601562 453.6875 79.839844 453.703125 81.335938 C 453.703125 86.21875 457.25 90.207031 461.894531 91.363281 L 461.894531 111.289062 L 456.4375 111.289062 L 456.4375 108.070312 C 456.4375 107.972656 456.421875 107.886719 456.410156 107.785156 C 456.296875 101.363281 452.191406 97.742188 450.371094 96.492188 C 448.988281 95.550781 447.707031 94.480469 446.523438 93.300781 C 444.1875 90.933594 442.292969 88.113281 440.980469 84.980469 C 439.671875 81.847656 438.945312 78.414062 438.945312 74.78125 C 438.945312 60.28125 450.511719 48.628906 464.828125 48.628906 Z M 367.609375 82.460938 C 391.667969 82.6875 415.699219 86.0625 438.832031 92.628906 C 438.886719 92.644531 438.929688 92.660156 438.988281 92.6875 C 440.070312 94.28125 441.296875 95.777344 442.664062 97.144531 C 444.074219 98.585938 445.625 99.878906 447.292969 101.019531 C 448.488281 101.816406 450.96875 103.683594 450.96875 108.085938 L 450.96875 122.65625 C 450.96875 129.222656 455.683594 134.75 461.894531 136.019531 L 461.894531 228.265625 C 432.722656 217.28125 400.925781 211.101562 367.609375 210.773438 Z M 561.644531 82.460938 L 561.644531 210.773438 C 528.34375 211.085938 496.535156 217.269531 467.363281 228.25 L 467.363281 136.003906 C 473.574219 134.738281 478.273438 129.222656 478.273438 122.644531 L 478.273438 108.070312 C 478.289062 107.972656 478.289062 107.871094 478.273438 107.773438 C 478.402344 103.726562 481.023438 101.933594 482.375 101.007812 C 484.042969 99.867188 485.59375 98.570312 487.019531 97.132812 C 488.414062 95.722656 489.667969 94.183594 490.792969 92.53125 C 513.8125 86.035156 537.714844 82.6875 561.644531 82.460938 Z M 338.851562 108.796875 C 342.726562 108.8125 346.585938 108.941406 350.417969 109.109375 C 354.347656 109.28125 358.265625 109.550781 362.15625 109.878906 L 362.15625 213.480469 C 362.15625 213.492188 362.15625 213.507812 362.15625 213.523438 C 362.15625 213.550781 362.15625 213.5625 362.15625 213.578125 C 362.167969 215.359375 363.835938 216.640625 365.558594 216.214844 C 400.128906 216.285156 433.0625 222.808594 463.0625 234.546875 C 463.53125 234.84375 464.074219 235 464.628906 234.988281 C 465.183594 235 465.726562 234.84375 466.195312 234.546875 C 496.394531 222.738281 529.554688 216.214844 564.367188 216.214844 C 564.394531 216.214844 564.421875 216.214844 564.4375 216.199219 C 564.464844 216.199219 564.480469 216.199219 564.496094 216.199219 C 564.566406 216.199219 564.652344 216.199219 564.722656 216.183594 C 564.738281 216.183594 564.75 216.183594 564.765625 216.171875 C 564.851562 216.15625 564.921875 216.140625 564.992188 216.128906 C 565.007812 216.128906 565.007812 216.128906 565.019531 216.128906 C 565.191406 216.085938 565.363281 216.015625 565.519531 215.941406 C 565.589844 215.898438 565.675781 215.859375 565.746094 215.816406 L 565.761719 215.816406 C 565.917969 215.730469 566.0625 215.617188 566.203125 215.5 L 566.203125 215.488281 C 566.261719 215.429688 566.316406 215.375 566.375 215.316406 L 566.390625 215.300781 C 566.460938 215.246094 566.515625 215.175781 566.574219 215.101562 C 566.574219 215.101562 566.574219 215.101562 566.574219 215.089844 C 566.671875 214.945312 566.773438 214.804688 566.84375 214.632812 C 566.914062 214.460938 566.972656 214.289062 567.015625 214.121094 L 567.015625 214.105469 C 567.042969 214.019531 567.058594 213.933594 567.074219 213.847656 C 567.074219 213.835938 567.074219 213.820312 567.074219 213.804688 C 567.085938 213.722656 567.085938 213.648438 567.085938 213.578125 C 567.101562 213.535156 567.101562 213.492188 567.085938 213.449219 C 567.085938 213.421875 567.085938 213.378906 567.085938 213.351562 L 567.085938 109.851562 C 570.988281 109.511719 574.90625 109.253906 578.839844 109.066406 C 582.671875 108.898438 586.515625 108.796875 590.390625 108.753906 L 590.390625 228.621094 C 550.675781 228.949219 512.84375 236.511719 478.34375 249.945312 C 478.316406 249.945312 478.289062 249.957031 478.273438 249.957031 C 478.246094 249.972656 478.21875 249.972656 478.203125 249.988281 C 477.691406 250.1875 477.25 250.554688 476.949219 251.011719 C 473.671875 254.628906 469.371094 256.765625 464.597656 256.765625 C 459.8125 256.765625 455.46875 254.601562 452.191406 250.941406 C 451.980469 250.628906 451.707031 250.371094 451.378906 250.171875 C 451.125 250 450.839844 249.871094 450.539062 249.800781 C 416.140625 236.441406 378.40625 228.933594 338.835938 228.605469 Z M 456.4375 116.746094 L 472.816406 116.746094 L 472.816406 122.644531 C 472.816406 127.214844 469.214844 130.820312 464.628906 130.820312 C 460.042969 130.820312 456.4375 127.214844 456.4375 122.644531 Z M 466.222656 120.507812 L 463.0625 120.507812 C 461.507812 120.449219 460.226562 121.6875 460.226562 123.242188 C 460.226562 124.78125 461.507812 126.019531 463.0625 125.960938 L 466.210938 125.960938 C 467.746094 126.019531 469.03125 124.78125 469.03125 123.242188 C 469.042969 121.703125 467.777344 120.464844 466.222656 120.507812 Z M 382.695312 131.074219 C 381.183594 131.074219 379.945312 132.300781 379.945312 133.8125 C 379.945312 135.320312 381.183594 136.546875 382.695312 136.546875 C 405.144531 136.546875 426.511719 140.25 445.925781 146.929688 C 447.363281 147.429688 448.929688 146.671875 449.429688 145.25 C 449.914062 143.808594 449.144531 142.257812 447.707031 141.773438 C 427.707031 134.878906 405.742188 131.074219 382.695312 131.074219 Z M 546.5625 131.074219 C 523.515625 131.074219 501.550781 134.878906 481.550781 141.773438 C 480.125 142.257812 479.355469 143.808594 479.855469 145.234375 C 480.339844 146.660156 481.890625 147.414062 483.332031 146.929688 C 502.746094 140.25 524.113281 136.546875 546.5625 136.546875 C 548.085938 136.546875 549.308594 135.320312 549.308594 133.8125 C 549.308594 132.300781 548.085938 131.074219 546.5625 131.074219 Z M 382.695312 158.511719 C 381.171875 158.496094 379.929688 159.722656 379.929688 161.246094 C 379.929688 162.769531 381.171875 163.996094 382.695312 163.980469 C 405.144531 163.980469 426.511719 167.683594 445.925781 174.363281 C 447.363281 174.875 448.929688 174.109375 449.429688 172.683594 C 449.914062 171.246094 449.144531 169.691406 447.707031 169.207031 C 427.707031 162.3125 405.742188 158.511719 382.695312 158.511719 Z M 546.5625 158.511719 C 523.515625 158.511719 501.550781 162.3125 481.550781 169.207031 C 480.125 169.691406 479.355469 171.246094 479.855469 172.667969 C 480.339844 174.09375 481.890625 174.863281 483.332031 174.363281 C 502.746094 167.683594 524.113281 163.980469 546.5625 163.980469 C 548.085938 163.996094 549.324219 162.769531 549.324219 161.246094 C 549.324219 159.722656 548.085938 158.496094 546.5625 158.511719 Z M 382.695312 187.453125 C 379.089844 187.496094 379.089844 192.882812 382.695312 192.925781 C 405.144531 192.925781 426.511719 196.628906 445.925781 203.308594 C 447.363281 203.820312 448.929688 203.066406 449.429688 201.628906 C 449.929688 200.1875 449.160156 198.621094 447.707031 198.152344 C 427.707031 191.257812 405.742188 187.453125 382.695312 187.453125 Z M 546.5625 187.453125 C 523.515625 187.453125 501.550781 191.257812 481.550781 198.152344 C 480.125 198.636719 479.355469 200.1875 479.855469 201.613281 C 480.339844 203.039062 481.890625 203.808594 483.332031 203.308594 C 502.746094 196.628906 524.113281 192.925781 546.5625 192.925781 C 548.085938 192.925781 549.324219 191.699219 549.324219 190.1875 C 549.324219 188.664062 548.085938 187.441406 546.5625 187.453125 Z M 546.5625 187.453125 " fill-opacity="1" fill-rule="nonzero"/></g><g fill="#ff8032" fill-opacity="1"><g transform="translate(206.361465, 338.5998)"><g/></g></g><g fill="#ff8032" fill-opacity="1"><g transform="translate(223.611667, 338.5998)"><g/></g></g><g fill="#ff8032" fill-opacity="1"><g transform="translate(240.861869, 338.5998)"><g/></g></g><g fill="#ff8032" fill-opacity="1"><g transform="translate(258.119987, 338.5998)"><g><path d="M 20.28125 -10.78125 C 21.082031 -10.550781 22.113281 -10.394531 23.375 -10.3125 C 24.644531 -10.226562 25.851562 -10.1875 27 -10.1875 C 29.300781 -10.1875 31.210938 -10.660156 32.734375 -11.609375 C 34.265625 -12.554688 35.03125 -14.035156 35.03125 -16.046875 C 35.03125 -17.941406 34.394531 -19.289062 33.125 -20.09375 C 31.863281 -20.90625 29.9375 -21.3125 27.34375 -21.3125 L 20.28125 -21.3125 Z M 20.28125 -31.84375 L 26.578125 -31.84375 C 29.046875 -31.84375 30.84375 -32.300781 31.96875 -33.21875 C 33.09375 -34.132812 33.65625 -35.488281 33.65625 -37.28125 C 33.65625 -38.832031 33.003906 -40.066406 31.703125 -40.984375 C 30.410156 -41.898438 28.472656 -42.359375 25.890625 -42.359375 C 25.023438 -42.359375 24.03125 -42.328125 22.90625 -42.265625 C 21.78125 -42.210938 20.90625 -42.128906 20.28125 -42.015625 Z M 25.890625 1.375 C 24.910156 1.375 23.757812 1.34375 22.4375 1.28125 C 21.113281 1.226562 19.742188 1.113281 18.328125 0.9375 C 16.921875 0.769531 15.523438 0.554688 14.140625 0.296875 C 12.765625 0.0351562 11.503906 -0.320312 10.359375 -0.78125 C 7.191406 -1.988281 5.609375 -4.085938 5.609375 -7.078125 L 5.609375 -47.375 C 5.609375 -48.582031 5.9375 -49.515625 6.59375 -50.171875 C 7.257812 -50.835938 8.164062 -51.367188 9.3125 -51.765625 C 11.269531 -52.453125 13.710938 -52.953125 16.640625 -53.265625 C 19.578125 -53.585938 22.601562 -53.75 25.71875 -53.75 C 33.070312 -53.75 38.734375 -52.507812 42.703125 -50.03125 C 46.671875 -47.5625 48.65625 -43.738281 48.65625 -38.5625 C 48.65625 -35.976562 47.90625 -33.75 46.40625 -31.875 C 44.914062 -30.007812 42.90625 -28.644531 40.375 -27.78125 C 43.25 -26.976562 45.648438 -25.507812 47.578125 -23.375 C 49.503906 -21.25 50.46875 -18.578125 50.46875 -15.359375 C 50.46875 -9.660156 48.351562 -5.445312 44.125 -2.71875 C 39.90625 0.0078125 33.828125 1.375 25.890625 1.375 Z M 25.890625 1.375 "/></g></g></g><g fill="#ff8032" fill-opacity="1"><g transform="translate(311.5093, 338.5998)"><g><path d="M 26.65625 1.375 C 23.269531 1.375 20.125 0.898438 17.21875 -0.046875 C 14.3125 -0.992188 11.78125 -2.414062 9.625 -4.3125 C 7.46875 -6.207031 5.769531 -8.59375 4.53125 -11.46875 C 3.289062 -14.351562 2.671875 -17.722656 2.671875 -21.578125 C 2.671875 -25.367188 3.289062 -28.628906 4.53125 -31.359375 C 5.769531 -34.097656 7.394531 -36.34375 9.40625 -38.09375 C 11.414062 -39.84375 13.710938 -41.132812 16.296875 -41.96875 C 18.890625 -42.8125 21.539062 -43.234375 24.25 -43.234375 C 27.289062 -43.234375 30.0625 -42.769531 32.5625 -41.84375 C 35.070312 -40.925781 37.234375 -39.660156 39.046875 -38.046875 C 40.859375 -36.441406 42.265625 -34.515625 43.265625 -32.265625 C 44.273438 -30.023438 44.78125 -27.582031 44.78125 -24.9375 C 44.78125 -22.976562 44.234375 -21.476562 43.140625 -20.4375 C 42.046875 -19.40625 40.519531 -18.75 38.5625 -18.46875 L 17.25 -15.265625 C 17.882812 -13.367188 19.179688 -11.945312 21.140625 -11 C 23.097656 -10.050781 25.34375 -9.578125 27.875 -9.578125 C 30.226562 -9.578125 32.453125 -9.878906 34.546875 -10.484375 C 36.648438 -11.085938 38.363281 -11.789062 39.6875 -12.59375 C 40.601562 -12.019531 41.378906 -11.210938 42.015625 -10.171875 C 42.648438 -9.140625 42.96875 -8.050781 42.96875 -6.90625 C 42.96875 -4.3125 41.757812 -2.382812 39.34375 -1.125 C 37.5 -0.144531 35.425781 0.515625 33.125 0.859375 C 30.832031 1.203125 28.675781 1.375 26.65625 1.375 Z M 24.25 -32.53125 C 22.863281 -32.53125 21.664062 -32.296875 20.65625 -31.828125 C 19.65625 -31.367188 18.835938 -30.78125 18.203125 -30.0625 C 17.566406 -29.34375 17.09375 -28.535156 16.78125 -27.640625 C 16.46875 -26.753906 16.28125 -25.851562 16.21875 -24.9375 L 30.96875 -27.34375 C 30.800781 -28.5 30.171875 -29.648438 29.078125 -30.796875 C 27.984375 -31.953125 26.375 -32.53125 24.25 -32.53125 Z M 24.25 -32.53125 "/></g></g></g><g fill="#ff8032" fill-opacity="1"><g transform="translate(358.861068, 338.5998)"><g><path d="M 39.859375 -12.515625 C 39.859375 -8.140625 38.21875 -4.710938 34.9375 -2.234375 C 31.664062 0.234375 26.835938 1.46875 20.453125 1.46875 C 18.035156 1.46875 15.789062 1.296875 13.71875 0.953125 C 11.644531 0.609375 9.875 0.078125 8.40625 -0.640625 C 6.945312 -1.359375 5.796875 -2.265625 4.953125 -3.359375 C 4.117188 -4.453125 3.703125 -5.75 3.703125 -7.25 C 3.703125 -8.625 3.988281 -9.785156 4.5625 -10.734375 C 5.144531 -11.691406 5.835938 -12.484375 6.640625 -13.109375 C 8.304688 -12.191406 10.21875 -11.375 12.375 -10.65625 C 14.53125 -9.9375 17.019531 -9.578125 19.84375 -9.578125 C 21.625 -9.578125 22.988281 -9.832031 23.9375 -10.34375 C 24.882812 -10.863281 25.359375 -11.554688 25.359375 -12.421875 C 25.359375 -13.222656 25.015625 -13.851562 24.328125 -14.3125 C 23.640625 -14.78125 22.488281 -15.15625 20.875 -15.4375 L 18.296875 -15.96875 C 13.285156 -16.9375 9.554688 -18.472656 7.109375 -20.578125 C 4.671875 -22.679688 3.453125 -25.6875 3.453125 -29.59375 C 3.453125 -31.71875 3.910156 -33.644531 4.828125 -35.375 C 5.753906 -37.101562 7.050781 -38.539062 8.71875 -39.6875 C 10.382812 -40.84375 12.378906 -41.734375 14.703125 -42.359375 C 17.035156 -42.992188 19.613281 -43.3125 22.4375 -43.3125 C 24.5625 -43.3125 26.554688 -43.148438 28.421875 -42.828125 C 30.296875 -42.515625 31.921875 -42.039062 33.296875 -41.40625 C 34.679688 -40.78125 35.773438 -39.960938 36.578125 -38.953125 C 37.390625 -37.953125 37.796875 -36.757812 37.796875 -35.375 C 37.796875 -34.050781 37.550781 -32.914062 37.0625 -31.96875 C 36.570312 -31.019531 35.953125 -30.226562 35.203125 -29.59375 C 34.742188 -29.882812 34.050781 -30.1875 33.125 -30.5 C 32.207031 -30.8125 31.203125 -31.097656 30.109375 -31.359375 C 29.015625 -31.617188 27.90625 -31.832031 26.78125 -32 C 25.664062 -32.175781 24.648438 -32.265625 23.734375 -32.265625 C 21.828125 -32.265625 20.359375 -32.046875 19.328125 -31.609375 C 18.296875 -31.179688 17.78125 -30.507812 17.78125 -29.59375 C 17.78125 -28.957031 18.066406 -28.4375 18.640625 -28.03125 C 19.210938 -27.632812 20.304688 -27.265625 21.921875 -26.921875 L 24.59375 -26.3125 C 30.113281 -25.050781 34.035156 -23.3125 36.359375 -21.09375 C 38.691406 -18.882812 39.859375 -16.023438 39.859375 -12.515625 Z M 39.859375 -12.515625 "/></g></g></g><g fill="#ff8032" fill-opacity="1"><g transform="translate(401.29651, 338.5998)"><g><path d="M 19.15625 -14.40625 C 19.15625 -12.914062 19.628906 -11.851562 20.578125 -11.21875 C 21.523438 -10.582031 22.863281 -10.265625 24.59375 -10.265625 C 25.457031 -10.265625 26.347656 -10.335938 27.265625 -10.484375 C 28.179688 -10.628906 28.988281 -10.816406 29.6875 -11.046875 C 30.195312 -10.410156 30.640625 -9.703125 31.015625 -8.921875 C 31.390625 -8.148438 31.578125 -7.21875 31.578125 -6.125 C 31.578125 -3.9375 30.753906 -2.148438 29.109375 -0.765625 C 27.472656 0.609375 24.585938 1.296875 20.453125 1.296875 C 15.390625 1.296875 11.488281 0.144531 8.75 -2.15625 C 6.019531 -4.457031 4.65625 -8.195312 4.65625 -13.375 L 4.65625 -50.296875 C 5.289062 -50.472656 6.195312 -50.660156 7.375 -50.859375 C 8.550781 -51.066406 9.800781 -51.171875 11.125 -51.171875 C 13.65625 -51.171875 15.625 -50.722656 17.03125 -49.828125 C 18.445312 -48.929688 19.15625 -47.046875 19.15625 -44.171875 L 19.15625 -38.65625 L 30.453125 -38.65625 C 30.796875 -38.019531 31.125 -37.226562 31.4375 -36.28125 C 31.757812 -35.332031 31.921875 -34.28125 31.921875 -33.125 C 31.921875 -31.113281 31.472656 -29.660156 30.578125 -28.765625 C 29.691406 -27.878906 28.5 -27.4375 27 -27.4375 L 19.15625 -27.4375 Z M 19.15625 -14.40625 "/></g></g></g><g fill="#7ed957" fill-opacity="1"><g transform="translate(453.248999, 337.305143)"><g><path d="M 3 -37.84375 C 2.625 -38.4375 2.273438 -39.242188 1.953125 -40.265625 C 1.628906 -41.296875 1.46875 -42.382812 1.46875 -43.53125 C 1.46875 -45.632812 1.9375 -47.144531 2.875 -48.0625 C 3.820312 -48.988281 5.054688 -49.453125 6.578125 -49.453125 L 41.984375 -49.453125 C 42.359375 -48.859375 42.707031 -48.046875 43.03125 -47.015625 C 43.363281 -45.984375 43.53125 -44.898438 43.53125 -43.765625 C 43.53125 -41.660156 43.054688 -40.144531 42.109375 -39.21875 C 41.160156 -38.300781 39.925781 -37.84375 38.40625 -37.84375 L 29.390625 -37.84375 L 29.390625 -0.328125 C 28.796875 -0.160156 27.863281 0 26.59375 0.15625 C 25.320312 0.320312 24.0625 0.40625 22.8125 0.40625 C 21.570312 0.40625 20.476562 0.3125 19.53125 0.125 C 18.582031 -0.0625 17.78125 -0.398438 17.125 -0.890625 C 16.476562 -1.378906 15.992188 -2.054688 15.671875 -2.921875 C 15.347656 -3.785156 15.1875 -4.921875 15.1875 -6.328125 L 15.1875 -37.84375 Z M 3 -37.84375 "/></g></g></g><g fill="#7ed957" fill-opacity="1"><g transform="translate(498.388725, 337.305143)"><g><path d="M 4.21875 -38.890625 C 4.757812 -39.054688 5.613281 -39.21875 6.78125 -39.375 C 7.945312 -39.539062 9.148438 -39.625 10.390625 -39.625 C 11.585938 -39.625 12.65625 -39.539062 13.59375 -39.375 C 14.539062 -39.21875 15.335938 -38.894531 15.984375 -38.40625 C 16.640625 -37.914062 17.144531 -37.25 17.5 -36.40625 C 17.851562 -35.570312 18.03125 -34.476562 18.03125 -33.125 L 18.03125 -15.671875 C 18.03125 -13.453125 18.570312 -11.867188 19.65625 -10.921875 C 20.738281 -9.972656 22.304688 -9.5 24.359375 -9.5 C 25.609375 -9.5 26.625 -9.609375 27.40625 -9.828125 C 28.1875 -10.046875 28.796875 -10.257812 29.234375 -10.46875 L 29.234375 -38.890625 C 29.773438 -39.054688 30.625 -39.21875 31.78125 -39.375 C 32.945312 -39.539062 34.15625 -39.625 35.40625 -39.625 C 36.59375 -39.625 37.660156 -39.539062 38.609375 -39.375 C 39.554688 -39.21875 40.351562 -38.894531 41 -38.40625 C 41.65625 -37.914062 42.15625 -37.25 42.5 -36.40625 C 42.851562 -35.570312 43.03125 -34.476562 43.03125 -33.125 L 43.03125 -8.4375 C 43.03125 -5.738281 41.894531 -3.710938 39.625 -2.359375 C 37.726562 -1.160156 35.46875 -0.253906 32.84375 0.359375 C 30.21875 0.984375 27.363281 1.296875 24.28125 1.296875 C 21.351562 1.296875 18.65625 0.96875 16.1875 0.3125 C 13.726562 -0.332031 11.601562 -1.328125 9.8125 -2.671875 C 8.03125 -4.023438 6.648438 -5.769531 5.671875 -7.90625 C 4.703125 -10.050781 4.21875 -12.640625 4.21875 -15.671875 Z M 4.21875 -38.890625 "/></g></g></g><g fill="#7ed957" fill-opacity="1"><g transform="translate(545.639301, 337.305143)"><g><path d="M 3 -37.84375 C 2.625 -38.4375 2.273438 -39.242188 1.953125 -40.265625 C 1.628906 -41.296875 1.46875 -42.382812 1.46875 -43.53125 C 1.46875 -45.632812 1.9375 -47.144531 2.875 -48.0625 C 3.820312 -48.988281 5.054688 -49.453125 6.578125 -49.453125 L 41.984375 -49.453125 C 42.359375 -48.859375 42.707031 -48.046875 43.03125 -47.015625 C 43.363281 -45.984375 43.53125 -44.898438 43.53125 -43.765625 C 43.53125 -41.660156 43.054688 -40.144531 42.109375 -39.21875 C 41.160156 -38.300781 39.925781 -37.84375 38.40625 -37.84375 L 29.390625 -37.84375 L 29.390625 -0.328125 C 28.796875 -0.160156 27.863281 0 26.59375 0.15625 C 25.320312 0.320312 24.0625 0.40625 22.8125 0.40625 C 21.570312 0.40625 20.476562 0.3125 19.53125 0.125 C 18.582031 -0.0625 17.78125 -0.398438 17.125 -0.890625 C 16.476562 -1.378906 15.992188 -2.054688 15.671875 -2.921875 C 15.347656 -3.785156 15.1875 -4.921875 15.1875 -6.328125 L 15.1875 -37.84375 Z M 3 -37.84375 "/></g></g></g><g fill="#7ed957" fill-opacity="1"><g transform="translate(590.779027, 337.305143)"><g><path d="M 45.0625 -19.734375 C 45.0625 -16.378906 44.546875 -13.390625 43.515625 -10.765625 C 42.492188 -8.140625 41.046875 -5.929688 39.171875 -4.140625 C 37.304688 -2.359375 35.070312 -1.003906 32.46875 -0.078125 C 29.875 0.835938 26.984375 1.296875 23.796875 1.296875 C 20.597656 1.296875 17.695312 0.8125 15.09375 -0.15625 C 12.5 -1.132812 10.269531 -2.53125 8.40625 -4.34375 C 6.539062 -6.15625 5.09375 -8.359375 4.0625 -10.953125 C 3.03125 -13.554688 2.515625 -16.484375 2.515625 -19.734375 C 2.515625 -22.921875 3.03125 -25.8125 4.0625 -28.40625 C 5.09375 -31.007812 6.539062 -33.21875 8.40625 -35.03125 C 10.269531 -36.851562 12.5 -38.25 15.09375 -39.21875 C 17.695312 -40.195312 20.597656 -40.6875 23.796875 -40.6875 C 26.984375 -40.6875 29.875 -40.179688 32.46875 -39.171875 C 35.070312 -38.171875 37.304688 -36.765625 39.171875 -34.953125 C 41.046875 -33.140625 42.492188 -30.929688 43.515625 -28.328125 C 44.546875 -25.734375 45.0625 -22.867188 45.0625 -19.734375 Z M 16.640625 -19.734375 C 16.640625 -16.429688 17.273438 -13.898438 18.546875 -12.140625 C 19.828125 -10.378906 21.601562 -9.5 23.875 -9.5 C 26.144531 -9.5 27.890625 -10.390625 29.109375 -12.171875 C 30.328125 -13.960938 30.9375 -16.484375 30.9375 -19.734375 C 30.9375 -22.984375 30.3125 -25.484375 29.0625 -27.234375 C 27.820312 -28.992188 26.066406 -29.875 23.796875 -29.875 C 21.515625 -29.875 19.75 -28.992188 18.5 -27.234375 C 17.257812 -25.484375 16.640625 -22.984375 16.640625 -19.734375 Z M 16.640625 -19.734375 "/></g></g></g><g fill="#7ed957" fill-opacity="1"><g transform="translate(638.354376, 337.305143)"><g><path d="M 18.03125 -0.078125 C 17.488281 0.078125 16.632812 0.238281 15.46875 0.40625 C 14.300781 0.570312 13.097656 0.65625 11.859375 0.65625 C 10.660156 0.65625 9.585938 0.570312 8.640625 0.40625 C 7.703125 0.238281 6.90625 -0.0820312 6.25 -0.5625 C 5.601562 -1.050781 5.101562 -1.710938 4.75 -2.546875 C 4.394531 -3.390625 4.21875 -4.488281 4.21875 -5.84375 L 4.21875 -30.203125 C 4.21875 -31.453125 4.445312 -32.519531 4.90625 -33.40625 C 5.375 -34.300781 6.039062 -35.101562 6.90625 -35.8125 C 7.769531 -36.507812 8.835938 -37.144531 10.109375 -37.71875 C 11.378906 -38.289062 12.742188 -38.789062 14.203125 -39.21875 C 15.671875 -39.65625 17.1875 -39.992188 18.75 -40.234375 C 20.320312 -40.484375 21.894531 -40.609375 23.46875 -40.609375 C 26.0625 -40.609375 28.113281 -40.101562 29.625 -39.09375 C 31.144531 -38.09375 31.90625 -36.457031 31.90625 -34.1875 C 31.90625 -33.425781 31.796875 -32.679688 31.578125 -31.953125 C 31.367188 -31.222656 31.101562 -30.5625 30.78125 -29.96875 C 29.644531 -29.96875 28.476562 -29.910156 27.28125 -29.796875 C 26.09375 -29.691406 24.929688 -29.53125 23.796875 -29.3125 C 22.660156 -29.09375 21.585938 -28.863281 20.578125 -28.625 C 19.578125 -28.382812 18.726562 -28.097656 18.03125 -27.765625 Z M 18.03125 -0.078125 "/></g></g></g><g fill="#ff8032" fill-opacity="1"><g transform="translate(344.04921, 413.698598)"><g><path d="M 13.984375 -21.515625 C 16.242188 -21.515625 18.09375 -20.910156 19.53125 -19.703125 C 20.976562 -18.492188 21.828125 -16.8125 22.078125 -14.65625 L 17.921875 -14.25 C 17.660156 -15.414062 17.21875 -16.289062 16.59375 -16.875 C 15.976562 -17.46875 15.097656 -17.765625 13.953125 -17.765625 C 12.585938 -17.765625 11.394531 -17.335938 10.375 -16.484375 C 9.351562 -15.640625 8.5625 -14.515625 8 -13.109375 C 7.4375 -11.703125 7.15625 -10.203125 7.15625 -8.609375 C 7.15625 -6.984375 7.539062 -5.6875 8.3125 -4.71875 C 9.09375 -3.757812 10.125 -3.28125 11.40625 -3.28125 C 12.488281 -3.28125 13.5 -3.632812 14.4375 -4.34375 C 15.375 -5.050781 16.085938 -6.144531 16.578125 -7.625 L 20.953125 -6.984375 C 20.128906 -4.628906 18.863281 -2.816406 17.15625 -1.546875 C 15.457031 -0.273438 13.429688 0.359375 11.078125 0.359375 C 8.441406 0.359375 6.410156 -0.425781 4.984375 -2 C 3.554688 -3.582031 2.84375 -5.851562 2.84375 -8.8125 C 2.84375 -11.21875 3.320312 -13.382812 4.28125 -15.3125 C 5.25 -17.238281 6.578125 -18.753906 8.265625 -19.859375 C 9.960938 -20.960938 11.867188 -21.515625 13.984375 -21.515625 Z M 13.984375 -21.515625 "/></g></g></g><g fill="#ff8032" fill-opacity="1"><g transform="translate(365.383202, 413.698598)"><g><path d="M 8.1875 -13.625 C 9.03125 -14.300781 9.859375 -14.8125 10.671875 -15.15625 C 11.484375 -15.5 12.378906 -15.671875 13.359375 -15.671875 C 14.640625 -15.671875 15.632812 -15.304688 16.34375 -14.578125 C 17.050781 -13.847656 17.40625 -12.867188 17.40625 -11.640625 C 17.40625 -11.128906 17.28125 -10.296875 17.03125 -9.140625 L 15.140625 0 L 11 0 L 12.984375 -9.578125 C 12.992188 -9.691406 13.039062 -9.90625 13.125 -10.21875 C 13.207031 -10.539062 13.25 -10.828125 13.25 -11.078125 C 13.25 -11.554688 13.078125 -11.945312 12.734375 -12.25 C 12.398438 -12.5625 11.957031 -12.71875 11.40625 -12.71875 C 10.875 -12.71875 10.300781 -12.53125 9.6875 -12.15625 C 9.082031 -11.78125 8.632812 -11.375 8.34375 -10.9375 C 7.882812 -10.289062 7.554688 -9.679688 7.359375 -9.109375 C 7.160156 -8.535156 7.019531 -8.078125 6.9375 -7.734375 C 6.863281 -7.390625 6.816406 -7.175781 6.796875 -7.09375 L 5.328125 0 L 1.1875 0 L 5.609375 -21.171875 L 9.75 -21.171875 Z M 8.1875 -13.625 "/></g></g></g><g fill="#ff8032" fill-opacity="1"><g transform="translate(383.437309, 413.698598)"><g><path d="M 7.484375 0.296875 C 6.273438 0.296875 5.203125 0.046875 4.265625 -0.453125 C 3.335938 -0.960938 2.609375 -1.675781 2.078125 -2.59375 C 1.554688 -3.519531 1.296875 -4.625 1.296875 -5.90625 C 1.296875 -7.332031 1.472656 -8.679688 1.828125 -9.953125 C 2.179688 -11.222656 2.710938 -12.34375 3.421875 -13.3125 C 4.140625 -14.289062 5.035156 -15.054688 6.109375 -15.609375 C 7.179688 -16.160156 8.4375 -16.4375 9.875 -16.4375 C 11.75 -16.4375 13.238281 -15.875 14.34375 -14.75 C 15.445312 -13.625 16 -12.054688 16 -10.046875 C 16 -8.691406 15.828125 -7.390625 15.484375 -6.140625 C 15.148438 -4.898438 14.632812 -3.796875 13.9375 -2.828125 C 13.238281 -1.867188 12.351562 -1.109375 11.28125 -0.546875 C 10.207031 0.015625 8.941406 0.296875 7.484375 0.296875 Z M 7.828125 -3.25 C 8.640625 -3.25 9.328125 -3.570312 9.890625 -4.21875 C 10.453125 -4.875 10.878906 -5.71875 11.171875 -6.75 C 11.472656 -7.789062 11.625 -8.890625 11.625 -10.046875 C 11.625 -10.859375 11.46875 -11.535156 11.15625 -12.078125 C 10.851562 -12.617188 10.316406 -12.890625 9.546875 -12.890625 C 8.898438 -12.890625 8.328125 -12.664062 7.828125 -12.21875 C 7.335938 -11.78125 6.9375 -11.207031 6.625 -10.5 C 6.3125 -9.789062 6.070312 -9.03125 5.90625 -8.21875 C 5.75 -7.40625 5.671875 -6.632812 5.671875 -5.90625 C 5.671875 -4.132812 6.390625 -3.25 7.828125 -3.25 Z M 6.359375 6.203125 C 5.722656 6.203125 5.195312 6.066406 4.78125 5.796875 C 4.375 5.535156 4.171875 5.082031 4.171875 4.4375 C 4.171875 3.601562 4.398438 2.96875 4.859375 2.53125 C 5.328125 2.101562 5.972656 1.890625 6.796875 1.890625 C 7.367188 1.890625 7.867188 2.015625 8.296875 2.265625 C 8.734375 2.523438 8.953125 2.984375 8.953125 3.640625 C 8.953125 4.410156 8.738281 5.03125 8.3125 5.5 C 7.894531 5.96875 7.242188 6.203125 6.359375 6.203125 Z M 6.359375 6.203125 "/></g></g></g><g fill="#ff8032" fill-opacity="1"><g transform="translate(400.723161, 413.698598)"><g><path d="M 13.359375 -15.671875 C 14.640625 -15.671875 15.632812 -15.304688 16.34375 -14.578125 C 17.050781 -13.847656 17.40625 -12.890625 17.40625 -11.703125 C 17.40625 -11.191406 17.269531 -10.273438 17 -8.953125 L 15.140625 0 L 11 0 L 12.984375 -9.578125 L 13.09375 -10.171875 C 13.195312 -10.597656 13.25 -10.882812 13.25 -11.03125 C 13.25 -11.5625 13.085938 -11.972656 12.765625 -12.265625 C 12.453125 -12.566406 12.007812 -12.71875 11.4375 -12.71875 C 10.75 -12.71875 10.023438 -12.421875 9.265625 -11.828125 C 8.503906 -11.234375 7.945312 -10.539062 7.59375 -9.75 C 7.300781 -9.0625 7.003906 -8.03125 6.703125 -6.65625 L 5.328125 0 L 1.1875 0 L 4.375 -15.3125 L 8.3125 -15.3125 L 7.890625 -13.328125 C 8.835938 -14.160156 9.734375 -14.757812 10.578125 -15.125 C 11.429688 -15.488281 12.359375 -15.671875 13.359375 -15.671875 Z M 13.359375 -15.671875 "/></g></g></g><g fill="#ff8032" fill-opacity="1"><g transform="translate(418.777267, 413.698598)"><g/></g></g><g fill="#ff8032" fill-opacity="1"><g transform="translate(426.991745, 413.698598)"><g><path d="M 19.390625 -19.65625 L 21.46875 -19.65625 L 20.90625 -17.140625 L 18.859375 -17.140625 L 15.28125 0 L 11.359375 0 L 11.703125 -1.65625 C 10.972656 -0.988281 10.25 -0.484375 9.53125 -0.140625 C 8.8125 0.191406 7.976562 0.359375 7.03125 0.359375 C 5.351562 0.359375 4.046875 -0.203125 3.109375 -1.328125 C 2.179688 -2.453125 1.71875 -4.007812 1.71875 -6 C 1.71875 -7.769531 2.046875 -9.398438 2.703125 -10.890625 C 3.359375 -12.378906 4.269531 -13.554688 5.4375 -14.421875 C 6.601562 -15.296875 7.894531 -15.734375 9.3125 -15.734375 C 10.53125 -15.734375 11.507812 -15.460938 12.25 -14.921875 C 12.988281 -14.390625 13.523438 -13.84375 13.859375 -13.28125 L 13.890625 -13.28125 L 14.71875 -17.140625 L 10.015625 -17.140625 L 10.546875 -19.65625 L 15.25 -19.65625 L 15.578125 -21.171875 L 19.6875 -21.171875 Z M 5.703125 -6.234375 C 5.703125 -5.191406 5.96875 -4.347656 6.5 -3.703125 C 7.03125 -3.066406 7.722656 -2.75 8.578125 -2.75 C 9.398438 -2.75 10.132812 -3.039062 10.78125 -3.625 C 11.4375 -4.21875 11.941406 -4.988281 12.296875 -5.9375 C 12.648438 -6.882812 12.828125 -7.863281 12.828125 -8.875 C 12.828125 -9.957031 12.539062 -10.851562 11.96875 -11.5625 C 11.394531 -12.269531 10.6875 -12.625 9.84375 -12.625 C 9.070312 -12.625 8.367188 -12.3125 7.734375 -11.6875 C 7.109375 -11.070312 6.613281 -10.269531 6.25 -9.28125 C 5.882812 -8.289062 5.703125 -7.273438 5.703125 -6.234375 Z M 5.703125 -6.234375 "/></g></g></g><g fill="#ff8032" fill-opacity="1"><g transform="translate(445.045853, 413.698598)"><g><path d="M 7.6875 0.296875 C 5.789062 0.296875 4.25 -0.210938 3.0625 -1.234375 C 1.882812 -2.265625 1.296875 -3.832031 1.296875 -5.9375 C 1.296875 -7.300781 1.488281 -8.609375 1.875 -9.859375 C 2.257812 -11.109375 2.832031 -12.222656 3.59375 -13.203125 C 4.351562 -14.191406 5.289062 -14.976562 6.40625 -15.5625 C 7.53125 -16.144531 8.832031 -16.4375 10.3125 -16.4375 C 12.101562 -16.4375 13.453125 -16.019531 14.359375 -15.1875 C 15.273438 -14.363281 15.734375 -13.3125 15.734375 -12.03125 C 15.734375 -10.332031 14.96875 -8.972656 13.4375 -7.953125 C 11.90625 -6.929688 9.570312 -6.421875 6.4375 -6.421875 L 5.703125 -6.421875 C 5.679688 -6.296875 5.671875 -6.1875 5.671875 -6.09375 C 5.671875 -6.007812 5.671875 -5.921875 5.671875 -5.828125 C 5.671875 -4.953125 5.914062 -4.257812 6.40625 -3.75 C 6.90625 -3.238281 7.617188 -2.984375 8.546875 -2.984375 C 9.390625 -2.984375 10.15625 -3.078125 10.84375 -3.265625 C 11.539062 -3.453125 12.359375 -3.773438 13.296875 -4.234375 L 13.296875 -0.953125 C 12.453125 -0.535156 11.59375 -0.222656 10.71875 -0.015625 C 9.84375 0.191406 8.832031 0.296875 7.6875 0.296875 Z M 6.171875 -9.34375 L 6.828125 -9.34375 C 8.503906 -9.34375 9.710938 -9.601562 10.453125 -10.125 C 11.191406 -10.644531 11.5625 -11.25 11.5625 -11.9375 C 11.5625 -12.84375 11.054688 -13.296875 10.046875 -13.296875 C 9.492188 -13.296875 8.957031 -13.128906 8.4375 -12.796875 C 7.914062 -12.460938 7.453125 -12 7.046875 -11.40625 C 6.640625 -10.820312 6.347656 -10.132812 6.171875 -9.34375 Z M 15.046875 -20.671875 L 15.25 -22.34375 C 15.664062 -22.382812 16.078125 -22.460938 16.484375 -22.578125 C 16.890625 -22.703125 17.09375 -22.988281 17.09375 -23.4375 C 17.09375 -23.613281 17.007812 -23.742188 16.84375 -23.828125 C 16.6875 -23.921875 16.5 -23.96875 16.28125 -23.96875 C 15.894531 -23.96875 15.492188 -23.898438 15.078125 -23.765625 L 15.078125 -25.515625 C 15.515625 -25.671875 16.078125 -25.75 16.765625 -25.75 C 17.546875 -25.75 18.15625 -25.554688 18.59375 -25.171875 C 19.03125 -24.785156 19.25 -24.285156 19.25 -23.671875 C 19.25 -22.535156 18.507812 -21.789062 17.03125 -21.4375 L 16.828125 -20.671875 Z M 4.609375 -17.921875 L 4.609375 -18.234375 C 4.960938 -18.578125 5.390625 -18.992188 5.890625 -19.484375 C 6.398438 -19.972656 6.894531 -20.472656 7.375 -20.984375 C 7.851562 -21.503906 8.265625 -21.957031 8.609375 -22.34375 L 13.1875 -22.34375 C 13.457031 -21.695312 13.828125 -20.988281 14.296875 -20.21875 C 14.773438 -19.445312 15.203125 -18.785156 15.578125 -18.234375 L 15.578125 -17.921875 L 12.890625 -17.921875 C 12.578125 -18.191406 12.210938 -18.539062 11.796875 -18.96875 C 11.378906 -19.40625 11.003906 -19.8125 10.671875 -20.1875 C 10.140625 -19.738281 9.617188 -19.335938 9.109375 -18.984375 C 8.609375 -18.628906 8.082031 -18.273438 7.53125 -17.921875 Z M 4.609375 -17.921875 "/></g></g></g><g fill="#ff8032" fill-opacity="1"><g transform="translate(461.504351, 413.698598)"><g/></g></g><g fill="#7ed957" fill-opacity="1"><g transform="translate(469.730736, 413.698598)"><g><path d="M 15.28125 0 L 11.359375 0 L 11.703125 -1.65625 C 10.972656 -0.988281 10.25 -0.484375 9.53125 -0.140625 C 8.8125 0.191406 7.976562 0.359375 7.03125 0.359375 C 5.351562 0.359375 4.039062 -0.203125 3.09375 -1.328125 C 2.15625 -2.453125 1.6875 -4.007812 1.6875 -6 C 1.6875 -7.769531 2.015625 -9.390625 2.671875 -10.859375 C 3.335938 -12.328125 4.25 -13.492188 5.40625 -14.359375 C 6.570312 -15.234375 7.875 -15.671875 9.3125 -15.671875 C 10.550781 -15.671875 11.535156 -15.40625 12.265625 -14.875 C 12.992188 -14.351562 13.523438 -13.820312 13.859375 -13.28125 L 13.890625 -13.28125 L 15.546875 -21.171875 L 19.6875 -21.171875 Z M 5.703125 -6.234375 C 5.703125 -5.191406 5.96875 -4.351562 6.5 -3.71875 C 7.03125 -3.09375 7.722656 -2.78125 8.578125 -2.78125 C 9.398438 -2.78125 10.132812 -3.070312 10.78125 -3.65625 C 11.4375 -4.25 11.941406 -5.015625 12.296875 -5.953125 C 12.648438 -6.890625 12.828125 -7.863281 12.828125 -8.875 C 12.828125 -9.957031 12.539062 -10.851562 11.96875 -11.5625 C 11.394531 -12.269531 10.6875 -12.625 9.84375 -12.625 C 9.070312 -12.625 8.363281 -12.3125 7.71875 -11.6875 C 7.082031 -11.070312 6.585938 -10.269531 6.234375 -9.28125 C 5.878906 -8.289062 5.703125 -7.273438 5.703125 -6.234375 Z M 5.703125 -6.234375 "/></g></g></g><g fill="#7ed957" fill-opacity="1"><g transform="translate(487.784842, 413.698598)"><g><path d="M 5.859375 0.296875 C 5.066406 0.296875 4.320312 0.101562 3.625 -0.28125 C 2.9375 -0.664062 2.375 -1.285156 1.9375 -2.140625 C 1.507812 -2.992188 1.296875 -4.132812 1.296875 -5.5625 C 1.296875 -6.875 1.472656 -8.171875 1.828125 -9.453125 C 2.179688 -10.734375 2.679688 -11.898438 3.328125 -12.953125 C 3.984375 -14.015625 4.769531 -14.859375 5.6875 -15.484375 C 6.601562 -16.117188 7.632812 -16.4375 8.78125 -16.4375 C 9.800781 -16.4375 10.628906 -16.21875 11.265625 -15.78125 C 11.910156 -15.351562 12.410156 -14.785156 12.765625 -14.078125 L 12.890625 -14.078125 L 13.71875 -16.140625 L 17.0625 -16.140625 L 13.625 0 L 10.375 0 L 10.578125 -2.09375 L 10.46875 -2.09375 C 9.894531 -1.382812 9.238281 -0.804688 8.5 -0.359375 C 7.757812 0.078125 6.878906 0.296875 5.859375 0.296875 Z M 7.5625 -3.21875 C 8.15625 -3.21875 8.707031 -3.453125 9.21875 -3.921875 C 9.726562 -4.398438 10.164062 -5.007812 10.53125 -5.75 C 10.894531 -6.488281 11.160156 -7.28125 11.328125 -8.125 C 11.460938 -8.832031 11.53125 -9.640625 11.53125 -10.546875 C 11.53125 -11.242188 11.351562 -11.8125 11 -12.25 C 10.644531 -12.695312 10.148438 -12.921875 9.515625 -12.921875 C 8.984375 -12.921875 8.484375 -12.707031 8.015625 -12.28125 C 7.554688 -11.851562 7.15625 -11.296875 6.8125 -10.609375 C 6.46875 -9.921875 6.195312 -9.148438 6 -8.296875 C 5.800781 -7.453125 5.703125 -6.609375 5.703125 -5.765625 C 5.703125 -4.066406 6.320312 -3.21875 7.5625 -3.21875 Z M 6.265625 -22.578125 C 6.441406 -23.742188 6.820312 -24.617188 7.40625 -25.203125 C 7.988281 -25.785156 8.675781 -26.078125 9.46875 -26.078125 C 9.9375 -26.078125 10.320312 -26.023438 10.625 -25.921875 C 10.9375 -25.828125 11.316406 -25.671875 11.765625 -25.453125 C 12.117188 -25.296875 12.40625 -25.160156 12.625 -25.046875 C 12.84375 -24.941406 13.140625 -24.890625 13.515625 -24.890625 C 13.847656 -24.890625 14.101562 -24.984375 14.28125 -25.171875 C 14.457031 -25.359375 14.625 -25.671875 14.78125 -26.109375 L 16.671875 -26.109375 C 16.398438 -24.859375 16 -23.957031 15.46875 -23.40625 C 14.9375 -22.851562 14.265625 -22.578125 13.453125 -22.578125 C 13.003906 -22.578125 12.609375 -22.628906 12.265625 -22.734375 C 11.929688 -22.847656 11.578125 -23.003906 11.203125 -23.203125 C 10.816406 -23.398438 10.515625 -23.539062 10.296875 -23.625 C 10.078125 -23.71875 9.78125 -23.765625 9.40625 -23.765625 C 9.050781 -23.765625 8.789062 -23.648438 8.625 -23.421875 C 8.457031 -23.203125 8.320312 -22.921875 8.21875 -22.578125 Z M 4.96875 -17.921875 L 4.96875 -18.234375 C 5.320312 -18.578125 5.738281 -18.96875 6.21875 -19.40625 C 6.707031 -19.851562 7.179688 -20.304688 7.640625 -20.765625 C 8.109375 -21.234375 8.507812 -21.660156 8.84375 -22.046875 L 13.421875 -22.046875 C 13.703125 -21.398438 14.097656 -20.738281 14.609375 -20.0625 C 15.117188 -19.394531 15.5625 -18.785156 15.9375 -18.234375 L 15.9375 -17.921875 L 13.25 -17.921875 C 12.957031 -18.128906 12.582031 -18.425781 12.125 -18.8125 C 11.664062 -19.195312 11.257812 -19.554688 10.90625 -19.890625 C 10.351562 -19.515625 9.847656 -19.179688 9.390625 -18.890625 C 8.941406 -18.597656 8.441406 -18.273438 7.890625 -17.921875 Z M 4.96875 -17.921875 "/></g></g></g><g fill="#7ed957" fill-opacity="1"><g transform="translate(505.336632, 413.698598)"><g><path d="M 13.359375 -15.671875 C 14.640625 -15.671875 15.632812 -15.304688 16.34375 -14.578125 C 17.050781 -13.847656 17.40625 -12.890625 17.40625 -11.703125 C 17.40625 -11.191406 17.269531 -10.273438 17 -8.953125 L 15.140625 0 L 11 0 L 12.984375 -9.578125 L 13.09375 -10.171875 C 13.195312 -10.597656 13.25 -10.882812 13.25 -11.03125 C 13.25 -11.5625 13.085938 -11.972656 12.765625 -12.265625 C 12.453125 -12.566406 12.007812 -12.71875 11.4375 -12.71875 C 10.75 -12.71875 10.023438 -12.421875 9.265625 -11.828125 C 8.503906 -11.234375 7.945312 -10.539062 7.59375 -9.75 C 7.300781 -9.0625 7.003906 -8.03125 6.703125 -6.65625 L 5.328125 0 L 1.1875 0 L 4.375 -15.3125 L 8.3125 -15.3125 L 7.890625 -13.328125 C 8.835938 -14.160156 9.734375 -14.757812 10.578125 -15.125 C 11.429688 -15.488281 12.359375 -15.671875 13.359375 -15.671875 Z M 13.359375 -15.671875 "/></g></g></g><g fill="#7ed957" fill-opacity="1"><g transform="translate(523.390738, 413.698598)"><g/></g></g><g fill="#7ed957" fill-opacity="1"><g transform="translate(531.605217, 413.698598)"><g><path d="M 19.390625 -19.65625 L 21.46875 -19.65625 L 20.90625 -17.140625 L 18.859375 -17.140625 L 15.28125 0 L 11.359375 0 L 11.703125 -1.65625 C 10.972656 -0.988281 10.25 -0.484375 9.53125 -0.140625 C 8.8125 0.191406 7.976562 0.359375 7.03125 0.359375 C 5.351562 0.359375 4.046875 -0.203125 3.109375 -1.328125 C 2.179688 -2.453125 1.71875 -4.007812 1.71875 -6 C 1.71875 -7.769531 2.046875 -9.398438 2.703125 -10.890625 C 3.359375 -12.378906 4.269531 -13.554688 5.4375 -14.421875 C 6.601562 -15.296875 7.894531 -15.734375 9.3125 -15.734375 C 10.53125 -15.734375 11.507812 -15.460938 12.25 -14.921875 C 12.988281 -14.390625 13.523438 -13.84375 13.859375 -13.28125 L 13.890625 -13.28125 L 14.71875 -17.140625 L 10.015625 -17.140625 L 10.546875 -19.65625 L 15.25 -19.65625 L 15.578125 -21.171875 L 19.6875 -21.171875 Z M 5.703125 -6.234375 C 5.703125 -5.191406 5.96875 -4.347656 6.5 -3.703125 C 7.03125 -3.066406 7.722656 -2.75 8.578125 -2.75 C 9.398438 -2.75 10.132812 -3.039062 10.78125 -3.625 C 11.4375 -4.21875 11.941406 -4.988281 12.296875 -5.9375 C 12.648438 -6.882812 12.828125 -7.863281 12.828125 -8.875 C 12.828125 -9.957031 12.539062 -10.851562 11.96875 -11.5625 C 11.394531 -12.269531 10.6875 -12.625 9.84375 -12.625 C 9.070312 -12.625 8.367188 -12.3125 7.734375 -11.6875 C 7.109375 -11.070312 6.613281 -10.269531 6.25 -9.28125 C 5.882812 -8.289062 5.703125 -7.273438 5.703125 -6.234375 Z M 5.703125 -6.234375 "/></g></g></g><g fill="#7ed957" fill-opacity="1"><g transform="translate(549.659324, 413.698598)"><g><path d="M 5.859375 0.296875 C 5.066406 0.296875 4.320312 0.101562 3.625 -0.28125 C 2.9375 -0.664062 2.375 -1.285156 1.9375 -2.140625 C 1.507812 -2.992188 1.296875 -4.132812 1.296875 -5.5625 C 1.296875 -6.875 1.472656 -8.171875 1.828125 -9.453125 C 2.179688 -10.734375 2.679688 -11.898438 3.328125 -12.953125 C 3.984375 -14.015625 4.769531 -14.859375 5.6875 -15.484375 C 6.601562 -16.117188 7.632812 -16.4375 8.78125 -16.4375 C 9.800781 -16.4375 10.628906 -16.21875 11.265625 -15.78125 C 11.910156 -15.351562 12.410156 -14.785156 12.765625 -14.078125 L 12.890625 -14.078125 L 13.71875 -16.140625 L 17.0625 -16.140625 L 13.625 0 L 10.375 0 L 10.578125 -2.09375 L 10.46875 -2.09375 C 9.894531 -1.382812 9.238281 -0.804688 8.5 -0.359375 C 7.757812 0.078125 6.878906 0.296875 5.859375 0.296875 Z M 7.5625 -3.21875 C 8.15625 -3.21875 8.707031 -3.453125 9.21875 -3.921875 C 9.726562 -4.398438 10.164062 -5.007812 10.53125 -5.75 C 10.894531 -6.488281 11.160156 -7.28125 11.328125 -8.125 C 11.460938 -8.832031 11.53125 -9.640625 11.53125 -10.546875 C 11.53125 -11.242188 11.351562 -11.8125 11 -12.25 C 10.644531 -12.695312 10.148438 -12.921875 9.515625 -12.921875 C 8.984375 -12.921875 8.484375 -12.707031 8.015625 -12.28125 C 7.554688 -11.851562 7.15625 -11.296875 6.8125 -10.609375 C 6.46875 -9.921875 6.195312 -9.148438 6 -8.296875 C 5.800781 -7.453125 5.703125 -6.609375 5.703125 -5.765625 C 5.703125 -4.066406 6.320312 -3.21875 7.5625 -3.21875 Z M 4.734375 -20.75 C 4.296875 -21.144531 3.820312 -21.640625 3.3125 -22.234375 C 2.800781 -22.828125 2.414062 -23.359375 2.15625 -23.828125 L 2.15625 -24.03125 L 5.5 -24.03125 C 5.625 -23.5625 5.789062 -23.066406 6 -22.546875 C 6.21875 -22.023438 6.457031 -21.503906 6.71875 -20.984375 L 6.71875 -20.75 Z M 4.96875 -17.921875 L 4.96875 -18.234375 C 5.320312 -18.578125 5.75 -18.992188 6.25 -19.484375 C 6.757812 -19.972656 7.253906 -20.472656 7.734375 -20.984375 C 8.210938 -21.503906 8.625 -21.957031 8.96875 -22.34375 L 13.546875 -22.34375 C 13.816406 -21.695312 14.1875 -20.988281 14.65625 -20.21875 C 15.132812 -19.445312 15.5625 -18.785156 15.9375 -18.234375 L 15.9375 -17.921875 L 13.25 -17.921875 C 12.9375 -18.191406 12.570312 -18.539062 12.15625 -18.96875 C 11.738281 -19.40625 11.363281 -19.8125 11.03125 -20.1875 C 10.5 -19.738281 9.976562 -19.335938 9.46875 -18.984375 C 8.96875 -18.628906 8.441406 -18.273438 7.890625 -17.921875 Z M 4.96875 -17.921875 "/></g></g></g><g fill="#7ed957" fill-opacity="1"><g transform="translate(567.211113, 413.698598)"><g><path d="M 6.5625 -6.234375 C 6.34375 -5.210938 6.234375 -4.550781 6.234375 -4.25 C 6.234375 -3.78125 6.394531 -3.382812 6.71875 -3.0625 C 7.050781 -2.75 7.484375 -2.59375 8.015625 -2.59375 C 8.410156 -2.59375 8.878906 -2.703125 9.421875 -2.921875 C 9.960938 -3.140625 10.488281 -3.578125 11 -4.234375 C 11.445312 -4.796875 11.769531 -5.300781 11.96875 -5.75 C 12.164062 -6.207031 12.363281 -6.921875 12.5625 -7.890625 L 14.125 -15.3125 L 18.265625 -15.3125 L 15.046875 0 L 11.171875 0 L 11.625 -2.0625 C 10.8125 -1.300781 9.9375 -0.707031 9 -0.28125 C 8.0625 0.144531 7.128906 0.359375 6.203125 0.359375 C 4.867188 0.359375 3.84375 0 3.125 -0.71875 C 2.414062 -1.4375 2.0625 -2.410156 2.0625 -3.640625 C 2.0625 -4.242188 2.203125 -5.171875 2.484375 -6.421875 L 4.3125 -15.3125 L 8.453125 -15.3125 Z M 6.5625 -6.234375 "/></g></g></g></svg>