<svg width="664" height="673" viewBox="0 0 664 673" fill="none" xmlns="http://www.w3.org/2000/svg">
<mask id="mask0_1_423" style="mask-type:alpha" maskUnits="userSpaceOnUse" x="0" y="-15" width="683" height="688">
<path d="M2.15566 361.942L10.1211 424.25L31.1398 476.417L54.3226 516.187L86.6446 559.928L116.112 595.289L168.083 627.842L221.701 651.761L294.161 668.417L360.095 672.043L428.929 659.243L494.127 638.685L533.263 616.216L593.396 561.148L639.773 501.729L668.757 443.024L682.57 369.114V285.81L664.452 213.35L637.643 157.557L607.715 112.055L572.354 79.0534L526.138 43.0937L494.127 22.7886L436.158 -0.394119L347.042 -14.8862L254.288 -1.07326L200.671 17.0447L135.462 56.1814L76.8259 115.588L38.3686 167.042L13.7355 232.25L0.693787 305.436L2.15566 361.942Z" fill="#FFAC00"/>
</mask>
<g mask="url(#mask0_1_423)">
<path d="M2.15554 361.942L10.121 424.25L31.1397 476.417L54.3224 516.187L86.6445 559.928L116.112 595.289L168.083 627.842L221.701 651.761L294.161 668.417L360.095 672.043L428.929 659.243L494.126 638.685L533.263 616.216L593.396 561.148L639.773 501.729L668.757 443.024L682.57 369.114V285.81L664.452 213.35L637.643 157.557L607.715 112.055L572.354 79.0534L526.138 43.0937L494.126 22.7886L436.158 -0.394119L347.042 -14.8862L254.288 -1.07326L200.67 17.0447L135.462 56.1814L76.8258 115.588L38.3685 167.042L13.7354 232.25L0.693665 305.436L2.15554 361.942Z" fill="#7ED957"/>
<path d="M742.542 907.29L739.347 903.713L741.111 902.114L744.308 905.691L742.542 907.29ZM723.342 885.824L720.122 882.246L721.911 880.673L725.108 884.25L723.342 885.824ZM704.095 864.358L700.899 860.781L702.664 859.206L705.859 862.761L704.095 864.358ZM684.823 842.893L681.628 839.316L683.393 837.718L686.612 841.295L684.823 842.893ZM665.528 821.427L662.308 817.873L664.073 816.276L667.294 819.829L665.528 821.427ZM646.209 799.961L642.99 796.408L644.754 794.81L647.974 798.364L646.209 799.961ZM626.842 778.639L623.623 775.085L625.388 773.464L628.607 777.017L626.842 778.639ZM607.451 757.316L604.232 753.763L605.973 752.165L609.217 755.718L607.451 757.316ZM588.037 736.042L584.746 732.703L586.511 731.105L589.755 734.634L588.037 736.042ZM568.575 715.005L565.331 711.451L567.097 709.854L570.339 713.383L568.575 715.005ZM549.089 693.778L545.846 690.249L547.61 688.627L550.854 692.156L549.089 693.778ZM529.579 672.575L526.336 669.044L528.076 667.423L531.344 670.953L529.579 672.575ZM510.046 651.419L506.778 647.889L508.518 646.267L511.786 649.797L510.046 651.419ZM490.464 630.288L487.196 626.757L488.937 625.135L492.205 628.666L490.464 630.288ZM470.859 609.156L467.591 605.65L469.332 604.028L472.6 607.534L470.859 609.156ZM451.182 588.096L447.914 584.566L449.656 582.944L452.947 586.45L451.182 588.096ZM431.553 567.13L428.262 563.625L430.002 562.003L433.294 565.508L431.553 567.13ZM411.852 546.094L408.561 542.612L410.301 540.966L413.594 544.472L411.852 546.094ZM392.127 525.105L388.836 521.623L390.577 519.977L393.869 523.484L392.127 525.105ZM372.475 504.045L369.183 500.563L370.924 498.917L374.215 502.399L372.475 504.045ZM352.678 483.105L349.386 479.623L351.128 477.977L354.419 481.483L352.678 483.105ZM332.739 462.187L329.543 458.897L330.259 457.894L331.118 457.084L334.433 460.566L332.739 462.187ZM312.848 441.341L309.533 437.859L311.25 436.215L314.565 439.697L312.848 441.341ZM292.932 420.521L289.594 417.062L291.31 415.393L294.649 418.875L292.932 420.521ZM272.921 399.77L269.582 396.335L271.299 394.666L274.639 398.124L272.921 399.77ZM252.84 379.139L249.476 375.705L251.169 374.036L254.533 377.469L252.84 379.139ZM232.637 358.604L229.37 355.194L231.063 353.523L234.45 356.934L232.637 358.604ZM212.317 338.163L208.929 334.777L210.6 333.084L214.01 336.47L212.317 338.163ZM191.829 317.939L188.394 314.575L190.064 312.882L193.498 316.221L191.829 317.939ZM171.15 297.88L167.692 294.565L169.338 292.823L172.82 296.163L171.15 297.88ZM150.305 278.036L146.799 274.745L148.421 273.003L151.927 276.295L150.305 278.036ZM129.196 258.455L125.667 255.187L127.289 253.446L130.818 256.69L129.196 258.455ZM107.946 239.04L104.392 235.82L105.991 234.055L109.544 237.252L107.946 239.04ZM86.4798 219.792L82.9737 216.525L84.5484 214.737L88.1259 217.932L86.4798 219.792ZM65.0145 200.712L61.4128 197.444L63.0116 195.655L66.5892 198.827L65.0145 200.712ZM43.549 181.631L39.8282 178.364L41.4023 176.575L45.0038 179.771L43.549 181.631ZM21.9402 162.551L18.2195 159.283L19.7936 157.495L23.3951 160.69L21.9402 162.551ZM0.474564 143.47L-3.36543 140.203L-1.7674 138.414L1.81017 141.61L0.474564 143.47ZM-20.9911 124.389L-24.8549 121.122L-23.2569 119.357L-19.6793 122.577L-20.9911 124.389ZM-42.4568 105.071L-46.0105 101.827L-44.4126 100.061L-40.8587 103.305L-42.4568 105.071ZM-63.8747 85.3459L-67.3808 82.0783L-65.7589 80.3372L-62.2529 83.6048L-63.8747 85.3459ZM-84.8633 65.5974L-88.3456 62.2584L-86.6999 60.5411L-83.2176 63.8802L-84.8633 65.5974ZM-105.59 45.5629L-109.024 42.1761L-107.331 40.4827L-103.92 43.8694L-105.59 45.5629ZM-126.006 25.1943L-129.369 21.7598L-127.652 20.0903L-124.289 23.5009L-126.006 25.1943ZM-146.017 4.42032L-149.308 0.914246L-147.567 -0.707619L-144.276 2.77463L-146.017 4.42032ZM-165.598 -16.7591L-168.818 -20.3129L-167.029 -21.9109L-163.833 -18.3571L-165.598 -16.7591ZM-184.679 -38.3678L-187.803 -42.0409L-185.991 -43.5674L-182.89 -39.942L-184.679 -38.3678ZM-203.187 -60.5014L-206.215 -64.2221L-204.355 -65.7247L-201.35 -62.004L-203.187 -60.5014ZM-221.051 -83.1119L-223.96 -86.9279L-222.076 -88.3829L-219.167 -84.5667L-221.051 -83.1119ZM-238.104 -106.271L-240.991 -110.23L-239.035 -111.614C-238.128 -110.302 -237.198 -109.014 -236.268 -107.702L-238.104 -106.271Z" fill="#F7F2ED"/>
<path d="M519.278 942.684L515.318 940.012L516.677 938.033L520.589 940.704L519.278 942.684ZM495.855 926.274L492.015 923.459L493.423 921.528L497.263 924.342L495.855 926.274ZM473.031 909.102L469.286 906.168L470.741 904.284L474.486 907.218L473.031 909.102ZM450.754 891.214L447.081 888.16L448.607 886.349L452.28 889.377L450.754 891.214ZM429.002 872.729L425.424 869.581L426.999 867.792L430.552 870.917L429.002 872.729ZM407.728 853.649L404.221 850.429L405.843 848.665L409.325 851.884L407.728 853.649ZM386.906 834.258L383.471 830.967L385.141 829.249L388.552 832.541L386.906 834.258ZM366.489 814.319L363.127 810.956L364.82 809.263L368.182 812.625L366.489 814.319ZM346.432 794.022L343.115 790.611L344.833 788.942L348.148 792.353L346.432 794.022ZM326.682 773.415L323.439 769.862L325.156 768.216L328.424 771.674L326.682 773.415ZM307.22 752.546L303.976 749.063L305.742 747.441L308.962 750.924L307.22 752.546ZM287.949 731.486L284.753 727.98L286.518 726.381L289.714 729.887L287.949 731.486ZM268.868 710.282L265.696 706.753L267.462 705.154L270.633 708.708L268.868 710.282ZM249.788 688.983L246.616 685.43L248.404 683.831L251.553 687.409L249.788 688.983ZM230.85 667.518L227.702 663.964L229.491 662.366L232.639 665.943L230.85 667.518ZM211.937 646.052L208.789 642.474L210.578 640.901L213.726 644.454L211.937 646.052ZM192.856 624.706L189.707 621.152L191.473 619.554L194.644 623.107L192.856 624.706ZM173.775 603.431L170.603 599.877L172.369 598.303L175.54 601.833L173.775 603.431ZM154.695 582.275L151.476 578.769L153.24 577.147L156.46 580.677L154.695 582.275ZM135.328 561.286L132.084 557.828L133.826 556.182L137.07 559.664L135.328 561.286ZM115.747 540.537L112.503 537.173L114.221 535.527L117.512 538.962L115.747 540.537ZM95.8554 520.049L92.5161 516.662L94.2093 514.992L97.5486 518.379L95.8554 520.049ZM75.6539 499.895L72.2433 496.579L73.9124 494.862L77.323 498.201L75.6539 499.895ZM55.2612 480.194L51.8029 476.927L53.4486 475.186L56.907 478.453L55.2612 480.194ZM34.4872 460.637L30.9573 457.416L32.5792 455.676L36.1807 458.895L34.4872 460.637ZM13.5225 441.199L9.94481 437.978L11.5667 436.213L15.0728 439.457L13.5225 441.199ZM-7.48999 421.903L-10.9961 418.684L-9.39803 416.918L-5.89207 420.137L-7.48999 421.903ZM-28.5979 402.679L-32.1278 399.484L-30.6014 397.79L-27.0715 400.986L-28.5979 402.679ZM-49.682 383.479L-53.2357 380.308L-51.6377 378.542L-48.1078 381.714L-49.682 383.479ZM-70.9568 364.399L-74.5105 361.226L-72.9126 359.438L-69.3588 362.61L-70.9568 364.399ZM-92.2555 345.318L-95.8093 342.146L-94.2351 340.382L-90.6814 343.53L-92.2555 345.318ZM-113.721 326.381L-117.299 323.233L-115.701 321.444L-112.147 324.592L-113.721 326.381ZM-135.187 307.468L-138.741 304.319L-137.166 302.531L-133.589 305.679L-135.187 307.468ZM-156.652 288.577L-160.039 285.691L-158.465 283.903L-154.888 287.051L-156.652 288.577ZM-178.119 269.688L-181.696 266.54L-180.097 264.751L-176.544 267.899L-178.119 269.688ZM-199.584 250.773L-203.137 247.625L-201.54 245.836L-197.557 249.2L-199.584 250.773ZM-220.93 231.837L-224.484 228.665L-222.886 226.899L-219.332 230.048L-220.93 231.837Z" fill="#F7F2ED"/>
<path d="M214.224 924.057L210.575 920.86L212.149 919.072L215.799 922.244L214.224 924.057ZM192.448 904.666L188.871 901.398L190.493 899.657L194.07 902.901L192.448 904.666ZM170.983 884.87L167.454 881.53L169.099 879.813L172.605 883.129L170.983 884.87ZM149.923 864.715L146.465 861.329L148.134 859.611L151.592 862.999L149.923 864.715ZM129.172 844.251L125.739 840.818L127.432 839.124L130.867 842.558L129.172 844.251ZM108.661 823.525L105.346 820.067L107.039 818.398L110.45 821.856L108.661 823.525ZM88.3642 802.632L84.9778 799.127L86.694 797.481L90.1772 800.867L88.3642 802.632ZM68.187 781.572L64.8477 778.042L66.5651 776.396L69.9032 779.927L68.187 781.572ZM48.2233 760.322L44.8843 756.791L46.6015 755.145L49.9406 758.676L48.2233 760.322ZM28.1887 739.095L24.8735 735.564L26.6384 734.085L29.9776 737.64L28.1887 739.095ZM8.17798 717.866L4.83881 714.337L6.57994 712.715L9.91911 716.244L8.17798 717.866ZM-11.8567 696.688L-15.2197 693.157L-13.4785 691.511L-10.1394 695.042L-11.8567 696.688ZM-32.0106 675.579L-35.3734 672.073L-33.6563 670.404L-30.2933 673.934L-32.0106 675.579ZM-52.2836 654.59L-55.6704 651.108L-53.9771 649.439L-50.5664 652.993L-52.2836 654.59ZM-72.7238 633.912L-76.1582 630.453L-74.4887 628.784L-71.0303 632.242L-72.7238 633.912ZM-93.4262 613.305L-96.8845 609.894L-95.2149 608.201L-91.7567 611.611L-93.4262 613.305ZM-114.367 593.009L-117.897 589.645L-116.251 587.904L-112.721 591.267L-114.367 593.009ZM-135.547 572.973L-139.124 569.658L-137.526 567.918L-133.925 571.208L-135.547 572.973ZM-157.179 553.368L-160.828 550.148L-159.254 548.36L-155.605 551.603L-157.179 553.368ZM-179.217 534.288L-182.938 531.164L-181.412 529.326L-177.69 532.475L-179.217 534.288ZM-201.709 515.708L-205.525 512.655L-204.023 510.795L-200.23 513.848L-201.709 515.708ZM-224.676 497.725L-228.565 494.743L-227.134 492.835L-223.246 495.769L-224.676 497.725Z" fill="#F7F2ED"/>
<path d="M918.657 450.262L915.08 447.114L916.653 445.325L920.231 448.474L918.657 450.262ZM897.43 431.181L893.924 427.961L895.546 426.221L899.052 429.44L897.43 431.181ZM876.584 411.767L873.149 408.499L874.795 406.758L878.23 410.026L876.584 411.767ZM856.073 392.019L852.685 388.68L854.356 386.986L857.742 390.301L856.073 392.019ZM835.823 371.984L832.461 368.645L834.154 366.952L837.516 370.314L835.823 371.984ZM815.765 351.806L812.449 348.419L814.143 346.75L817.459 350.137L815.765 351.806ZM795.85 331.509L792.606 328.194L794.228 326.453L797.543 329.84L795.85 331.509ZM775.958 311.165L772.643 307.801L774.36 306.132L777.651 309.495L775.958 311.165ZM756.043 290.891L752.728 287.529L754.421 285.835L757.736 289.198L756.043 290.891ZM736.032 270.714L732.692 267.374L734.387 265.681L737.725 269.02L736.032 270.714ZM715.926 250.703L712.539 247.364L714.208 245.671L717.596 248.986L715.926 250.703ZM695.987 230.311C694.89 229.165 693.816 227.926 692.743 226.829L694.485 225.23L697.727 228.689L695.987 230.311ZM676.906 209.202L673.781 205.649L675.57 204.075L678.695 207.629L676.906 209.202ZM658.254 187.737L655.178 184.112L656.99 182.562L660.067 186.186L658.254 187.737ZM639.842 166.033L636.789 162.407L638.602 160.857L641.655 164.483L639.842 166.033ZM621.453 144.281L618.138 140.631L619.951 139.082L623.027 142.707L621.453 144.281ZM602.897 122.815L599.773 119.237L601.561 117.664L604.685 121.241L602.897 122.815ZM583.983 101.565L580.764 98.0816L582.528 96.4597L585.749 99.9659L583.983 101.565ZM564.449 80.9335C563.328 79.7887 562.231 78.5484 561.11 77.5705L562.805 75.8771L566.143 79.2401L564.449 80.9335ZM543.986 61.2566L540.456 58.0844L542.054 56.3195L545.584 59.4917L543.986 61.2566ZM522.95 42.176L519.468 38.9561L521.089 37.215L524.572 40.4349L522.95 42.176ZM502.128 22.7615L498.693 19.5178L500.315 17.7767L503.654 20.758L502.128 22.7615ZM481.497 3.15625L478.086 -0.135162L479.732 -1.85245L483.166 1.43896L481.497 3.15625ZM461.033 -16.6161L457.647 -19.9313L459.316 -21.6486L462.702 -18.3333L461.033 -16.6161ZM440.712 -36.5315L437.325 -39.8705L439.019 -41.5639L442.382 -38.2486L440.712 -36.5315ZM420.486 -56.566L416.933 -60.1437L418.626 -61.837L421.99 -58.498L420.486 -56.566ZM400.166 -76.8392L396.827 -80.2021L398.52 -81.8955L401.86 -78.5325L400.166 -76.8392ZM380.083 -97.0169L376.744 -100.38L378.439 -102.049L381.777 -98.6864L380.083 -97.0169ZM360.049 -117.385L356.71 -120.748L358.403 -122.418L361.742 -119.055L360.049 -117.385ZM340.014 -137.587L336.699 -140.878L338.392 -142.548L341.732 -139.185L340.014 -137.587ZM320.004 -157.693L316.641 -161.056L318.334 -162.725L321.697 -159.363L320.004 -157.693ZM299.898 -177.823L296.535 -181.162L298.228 -182.855L301.567 -179.516L299.898 -177.823ZM279.72 -197.882L276.333 -201.221L278.026 -202.914L281.39 -199.575L279.72 -197.882ZM259.447 -217.821L256.036 -221.136L257.705 -222.853L261.093 -219.538L259.447 -217.821ZM238.912 -237.665L235.501 -240.956L237.146 -242.674L240.557 -239.381L238.912 -237.665ZM218.352 -257.318L215.06 -260.49L216.706 -262.23L220.141 -258.964L218.352 -257.318ZM197.626 -276.804L194.167 -280.024L195.789 -281.764L199.248 -278.545L197.626 -276.804Z" fill="#F7F2ED"/>
<path d="M863.966 122.935L860.938 119.166L862.798 117.664L865.827 121.432L863.966 122.935ZM845.697 100.395L842.643 96.6267L844.481 95.1245L847.557 98.869L845.697 100.395ZM827.308 77.9283L824.231 74.2076L826.068 72.6812L829.145 76.4258L827.308 77.9283ZM808.943 55.5801L805.723 51.9548L807.56 50.4284L810.637 54.1491L808.943 55.5801ZM790.315 33.3274L787.214 29.6306L789.027 28.0803L792.152 31.7771L790.315 33.3274ZM771.593 11.1462L768.397 7.47324L770.209 5.92296L773.358 9.61975L771.593 11.1462ZM752.774 -10.9157L749.626 -14.5887L751.415 -16.139L754.467 -12.4421L752.774 -10.9157ZM733.813 -32.8822L730.641 -36.5552L732.454 -38.1055L735.625 -34.4563L733.813 -32.8822ZM714.732 -54.7771L711.561 -58.4025L713.35 -59.9767L716.545 -56.3513L714.732 -54.7771ZM695.652 -76.5529L692.456 -80.1782L694.221 -81.7523L697.441 -78.1508L695.652 -76.5529ZM676.214 -98.3047L672.994 -101.858L674.759 -103.456L677.978 -99.8312L676.214 -98.3047ZM656.822 -119.77L653.579 -123.348L655.344 -124.946L658.684 -121.44L656.822 -119.77ZM637.337 -141.236L634.069 -144.909L635.835 -146.507L639.102 -142.929L637.337 -141.236ZM617.732 -162.702L614.464 -166.28L616.205 -167.902L619.496 -164.347L617.732 -162.702ZM598.031 -184.001L594.739 -187.53L596.481 -189.152L599.772 -185.622L598.031 -184.001ZM578.211 -205.179L574.896 -208.71L576.637 -210.356L579.976 -206.85L578.211 -205.179Z" fill="#F7F2ED"/>
<path d="M856.98 701.6L853.855 698L855.668 696.425L858.792 700.051L856.98 701.6ZM838.114 680.135L834.941 676.582L836.706 675.007L839.878 678.562L838.114 680.135ZM819.034 658.837L815.837 655.306L817.602 653.709L820.798 657.239L819.034 658.837ZM799.738 637.705L796.494 634.199L798.259 632.577L801.478 636.083L799.738 637.705ZM780.323 616.572L777.08 613.09L778.845 611.469L782.089 614.952L780.323 616.572ZM760.718 595.752L757.474 592.293L759.215 590.647L762.459 594.13L760.718 595.752ZM741.137 574.882L737.869 571.424L739.61 569.778L742.878 573.26L741.137 574.882ZM721.507 554.061L718.312 550.435L720.052 548.813L723.32 552.271L721.507 554.061ZM701.831 533.286L698.563 529.828L700.28 528.206L703.571 531.64L701.831 533.286ZM682.13 512.56L678.838 509.102L680.555 507.456L683.847 510.914L682.13 512.56ZM662.381 491.858L659.09 488.399L660.807 486.754L664.098 490.212L662.381 491.858ZM642.586 471.179L639.294 467.745L641.011 466.099L644.375 469.343L642.586 471.179ZM622.789 450.525L619.497 447.09L621.215 445.444L624.507 448.879L622.789 450.525ZM602.969 429.917L599.654 426.411L601.371 424.742L604.687 428.177L602.969 429.917ZM583.126 409.31L583.984 408.476L583.006 409.191L579.811 405.876L581.528 404.229L584.748 407.331L584.007 408.285L583.126 409.31ZM563.282 388.608L559.966 385.173L561.683 383.504L564.998 386.938L563.282 388.608ZM543.39 368.025L540.098 364.614L541.792 362.945L545.108 366.379L543.39 368.025ZM523.499 347.465L520.208 344.055L521.924 342.408L525.216 345.819L523.499 347.465ZM503.655 327.001L500.34 323.566L502.056 321.922L505.373 325.332L503.655 327.001ZM483.763 306.466L480.424 303.055L482.141 301.385L485.457 304.82L483.763 306.466ZM463.8 285.931L460.461 282.496L462.178 280.827L465.493 284.261L463.8 285.931ZM443.766 265.347L440.426 261.841L442.144 260.172L445.459 263.583L443.766 265.347ZM423.827 244.836L420.512 241.425L422.205 239.755L425.544 243.166L423.827 244.836ZM403.863 224.348L400.548 220.937L402.242 219.267L405.581 222.678L403.863 224.348ZM383.9 203.86L380.561 200.449L382.278 198.78L385.594 202.191L383.9 203.86ZM363.913 183.396L360.551 179.985L362.244 178.316L365.583 181.727L363.913 183.396ZM343.855 162.908L340.539 159.497L342.234 157.828L345.572 161.239L343.855 162.908ZM323.868 142.444L320.553 139.034L322.246 137.364L325.537 140.727L323.868 142.444ZM303.881 121.98L300.541 118.57L302.259 116.901L305.598 120.311L303.881 121.98ZM283.895 101.516L280.555 98.1058L282.273 96.4367L285.588 99.8474L283.895 101.516ZM263.883 81.0527L260.545 77.642L262.261 75.9963L265.6 79.3831L263.883 81.0527ZM243.873 60.6126L240.558 57.2019L242.251 55.5324L245.59 58.9431L243.873 60.6126ZM223.885 40.1487L220.547 36.7381L222.24 35.0684L225.579 38.4792L223.885 40.1487ZM203.875 19.6847L200.584 16.1786L202.3 14.5091L205.521 18.0152L203.875 19.6847ZM183.865 -0.779175L180.525 -4.18983L182.243 -5.85935L185.558 -2.44871L183.865 -0.779175ZM163.853 -21.2431L160.538 -24.6538L162.231 -26.3233L165.571 -22.9127L163.853 -21.2431ZM143.867 -41.7309L140.528 -45.1415L142.245 -46.8111L145.607 -43.4482L143.867 -41.7309ZM123.855 -62.2186L120.589 -65.6294L122.282 -67.2989L125.621 -63.8882L123.855 -62.2186ZM103.869 -82.7303L100.577 -86.1648L102.295 -87.8105L105.61 -84.3999L103.869 -82.7303ZM83.8819 -103.29L80.5668 -106.7L82.2842 -108.37L85.5993 -104.935L83.8819 -103.29ZM64.0384 -123.873L60.7233 -127.307L62.4396 -128.977L65.7558 -125.542L64.0384 -123.873Z" fill="#F7F2ED"/>
</g>
</svg>
