<svg width="554" height="731" viewBox="0 0 554 731" fill="none" xmlns="http://www.w3.org/2000/svg">
<mask id="mask0_1_566" style="mask-type:alpha" maskUnits="userSpaceOnUse" x="-183" y="0" width="737" height="731">
<path d="M-52.7745 81.706L44.2314 315.901L-182.669 416.341L-107.675 597.39L132.485 496.445L229.337 730.268L424.829 649.292L327.702 414.808L553.926 316.605L477.198 131.368L236.547 232.244L138.745 0.853516L-52.7745 81.706Z" fill="#FFAC00"/>
</mask>
<g mask="url(#mask0_1_566)">
<path d="M-52.7745 81.7063L44.2314 315.901L-182.669 416.341L-107.675 597.39L132.485 496.445L229.337 730.268L424.829 649.292L327.702 414.808L553.926 316.605L477.198 131.368L236.547 232.244L138.745 0.85376L-52.7745 81.7063Z" fill="#FF8032"/>
<path d="M366.445 576.127C352.388 581.949 338.231 587.53 324.055 592.808L323.055 590.392C352.751 579.28 382.389 566.947 411.173 553.694L412.173 556.11C397.236 563.033 381.889 569.729 366.445 576.127Z" fill="#FFAC00"/>
<path d="M359.38 559.071C345.481 564.829 331.481 570.344 317.471 575.581L316.47 573.165C345.831 562.193 375.065 550.026 403.703 536.863L404.704 539.279C389.812 546.126 374.646 552.747 359.38 559.071Z" fill="#FFAC00"/>
<path d="M345.228 524.967C331.664 530.587 317.988 535.996 304.314 541.095L303.313 538.679C331.992 527.96 360.622 516.044 388.307 503.303L389.307 505.719C374.989 512.301 360.135 518.793 345.228 524.967Z" fill="#FFAC00"/>
<path d="M352.293 542.024C338.572 547.707 324.729 553.158 310.876 558.33L309.875 555.914C338.878 545.09 367.866 533.027 395.988 520.075L396.989 522.491C382.39 529.218 367.402 535.765 352.293 542.024Z" fill="#FFAC00"/>
<path d="M338.164 507.912C324.734 513.475 311.253 518.785 297.719 523.845L296.718 521.429C325.052 510.824 353.346 499.048 380.839 486.415L381.84 488.831C367.576 495.418 352.936 501.793 338.164 507.912Z" fill="#FFAC00"/>
<path d="M324.055 592.808C294.313 603.939 263.776 614.098 233.278 623.022L232.501 620.513C262.909 611.626 293.437 601.443 323.112 590.341L324.055 592.808Z" fill="#FFAC00"/>
<path d="M317.47 575.581C287.952 586.619 257.85 596.626 227.73 605.451L226.953 602.942C257.039 594.159 287.176 584.11 316.537 573.138L317.47 575.581Z" fill="#FFAC00"/>
<path d="M304.331 541.201C275.607 551.939 246.107 561.752 216.754 570.344L215.978 567.835C245.374 559.224 274.83 549.43 303.554 538.692L304.331 541.201Z" fill="#FFAC00"/>
<path d="M310.932 558.279C281.873 569.154 252.026 579.083 222.229 587.803L221.453 585.294C251.195 576.569 280.996 566.659 309.989 555.81L310.932 558.279Z" fill="#FFAC00"/>
<path d="M297.719 523.844C269.317 534.477 240.163 544.176 211.069 552.689L210.291 550.18C239.331 541.662 268.329 532.027 296.786 521.401L297.719 523.844Z" fill="#FFAC00"/>
<path d="M135.324 661.523L79.5658 691.7L80.7763 694.017L136.535 663.84L135.324 661.523Z" fill="#FFAC00"/>
<path d="M126.883 645.13L71.1249 675.307L72.3341 677.624L128.094 647.447L126.883 645.13Z" fill="#FFAC00"/>
<path d="M110.022 612.332L54.2632 642.509L55.4724 644.826L111.232 614.649L110.022 612.332Z" fill="#FFAC00"/>
<path d="M118.442 628.738L62.6827 658.915L63.8932 661.23L119.652 631.053L118.442 628.738Z" fill="#FFAC00"/>
<path d="M101.569 595.914L45.811 626.091L47.0215 628.408L102.78 598.23L101.569 595.914Z" fill="#FFAC00"/>
<path d="M11.0882 719.499L-47.1741 743.631L-46.1733 746.047L12.089 721.915L11.0882 719.499Z" fill="#FFAC00"/>
<path d="M4.02369 702.442L-54.2386 726.575L-53.2379 728.991L5.02449 704.858L4.02369 702.442Z" fill="#FFAC00"/>
<path d="M615.597 476.838L469.96 544.694L471.05 547.071L616.687 479.214L615.597 476.838Z" fill="#FFAC00"/>
<path d="M607.95 460.038L462.313 527.895L463.403 530.272L609.04 462.415L607.95 460.038Z" fill="#FFAC00"/>
<path d="M592.667 426.47L447.03 494.326L448.12 496.703L593.757 428.846L592.667 426.47Z" fill="#FFAC00"/>
<path d="M600.304 443.242L454.667 511.099L455.756 513.476L601.394 445.619L600.304 443.242Z" fill="#FFAC00"/>
<path d="M584.988 409.658L439.351 477.515L440.44 479.891L586.078 412.035L584.988 409.658Z" fill="#FFAC00"/>
<path d="M387.209 764.219L388.145 766.66L482.039 731.165L481.104 728.724L387.209 764.219Z" fill="#FFAC00"/>
<path d="M373.948 729.75L374.883 732.193L468.776 696.697L467.841 694.255L373.948 729.75Z" fill="#FFAC00"/>
<path d="M380.571 747L381.507 749.441L475.401 713.946L474.466 711.505L380.571 747Z" fill="#FFAC00"/>
<path d="M367.31 712.534L368.245 714.976L462.138 679.481L461.204 677.039L367.31 712.534Z" fill="#FFAC00"/>
<path d="M280.06 765.238L280.995 767.681L374.888 732.184L373.953 729.743L280.06 765.238Z" fill="#FFAC00"/>
<path d="M273.422 748.02L274.357 750.461L368.25 714.966L367.315 712.525L273.422 748.02Z" fill="#FFAC00"/>
<path d="M523.407 241.633L524.342 244.074L618.237 208.579L617.301 206.138L523.407 241.633Z" fill="#FFAC00"/>
<path d="M516.757 224.449L517.692 226.891L611.587 191.396L610.651 188.954L516.757 224.449Z" fill="#FFAC00"/>
<path d="M503.496 189.982L504.432 192.423L598.325 156.928L597.389 154.487L503.496 189.982Z" fill="#FFAC00"/>
<path d="M510.133 207.199L511.068 209.64L604.963 174.145L604.027 171.704L510.133 207.199Z" fill="#FFAC00"/>
<path d="M496.859 172.765L497.794 175.206L591.687 139.711L590.753 137.269L496.859 172.765Z" fill="#FFAC00"/>
<path d="M311.58 348.607L312.449 351.073L415.706 315.773L414.838 313.307L311.58 348.607Z" fill="#FFAC00"/>
<path d="M305.535 331.256L306.403 333.722L409.667 298.44L408.8 295.974L305.535 331.256Z" fill="#FFAC00"/>
<path d="M293.177 296.476L294.043 298.942L397.307 263.661L396.44 261.194L293.177 296.476Z" fill="#FFAC00"/>
<path d="M299.199 313.841L300.067 316.307L403.324 281.006L402.456 278.54L299.199 313.841Z" fill="#FFAC00"/>
<path d="M286.987 279.102L287.855 281.568L391.119 246.287L390.252 243.82L286.987 279.102Z" fill="#FFAC00"/>
<path d="M206.432 386.203L132.278 416.919L133.279 419.334L207.433 388.619L206.432 386.203Z" fill="#FFAC00"/>
<path d="M199.368 369.146L125.213 399.862L126.214 402.278L200.369 371.562L199.368 369.146Z" fill="#FFAC00"/>
<path d="M185.237 335.035L111.084 365.751L112.085 368.166L186.238 337.451L185.237 335.035Z" fill="#FFAC00"/>
<path d="M192.303 352.091L118.149 382.807L119.149 385.222L193.303 354.507L192.303 352.091Z" fill="#FFAC00"/>
<path d="M178.183 318.004L104.029 348.719L105.03 351.134L179.184 320.42L178.183 318.004Z" fill="#FFAC00"/>
<path d="M57.6323 455.646L-88.0046 523.503L-86.9147 525.88L58.7223 458.023L57.6323 455.646Z" fill="#FFAC00"/>
<path d="M49.9863 438.848L-95.652 506.705L-94.562 509.082L51.075 441.225L49.9863 438.848Z" fill="#FFAC00"/>
<path d="M34.6692 405.265L-110.968 473.122L-109.878 475.499L35.7592 407.642L34.6692 405.265Z" fill="#FFAC00"/>
<path d="M42.3164 422.062L-103.321 489.919L-102.232 492.295L43.4064 424.439L42.3164 422.062Z" fill="#FFAC00"/>
<path d="M27.0344 388.434L-118.603 456.291L-117.513 458.668L28.1244 390.811L27.0344 388.434Z" fill="#FFAC00"/>
<path d="M585.964 -23.3853L511.811 7.33061L512.81 9.74659L586.965 -20.9693L585.964 -23.3853Z" fill="#FFAC00"/>
<path d="M187.984 145.284C173.927 151.105 159.772 156.687 145.605 161.988L144.604 159.572C174.3 148.461 203.937 136.128 232.732 122.899L233.732 125.315C218.805 132.262 203.428 138.886 187.984 145.284Z" fill="#FFAC00"/>
<path d="M180.889 128.155C166.989 133.912 152.99 139.428 138.98 144.666L137.979 142.25C167.33 131.252 196.564 119.087 225.202 105.922L226.202 108.338C211.351 115.282 196.154 121.832 180.889 128.155Z" fill="#FFAC00"/>
<path d="M166.777 94.1501C153.213 99.7681 139.527 105.155 125.862 110.277L124.862 107.861C153.532 97.1173 182.162 85.2019 209.857 72.4854L210.858 74.9013C196.539 81.4838 181.685 87.9758 166.777 94.1501Z" fill="#FFAC00"/>
<path d="M173.862 111.254C160.142 116.938 146.308 122.412 132.455 127.585L131.454 125.169C160.447 114.321 189.435 102.256 217.568 89.3296L218.569 91.7456C203.939 98.3996 188.971 104.996 173.862 111.254Z" fill="#FFAC00"/>
<path d="M159.735 77.0853C146.305 82.6481 132.779 87.9773 119.156 93.073L118.155 90.657C146.511 80.0437 174.806 68.2677 202.277 55.6428L203.278 58.0588C189.115 64.5759 174.486 70.9763 159.735 77.0853Z" fill="#FFAC00"/>
<path d="M145.605 161.99C115.841 173.129 85.3031 183.288 54.8271 192.204L54.0498 189.695C84.458 180.807 114.974 170.658 144.67 159.546L145.605 161.99Z" fill="#FFAC00"/>
<path d="M139.02 144.763C109.502 155.801 79.3988 165.807 49.2693 174.607L48.4921 172.1C78.5675 163.293 108.715 153.268 138.076 142.295L139.02 144.763Z" fill="#FFAC00"/>
<path d="M125.84 110.286C97.1155 121.024 67.6152 130.837 38.2542 139.405L37.4769 136.896C66.873 128.287 96.3294 118.491 125.054 107.753L125.84 110.286Z" fill="#FFAC00"/>
<path d="M132.491 127.484C103.432 138.361 73.5861 148.289 43.7894 157.008L43.0121 154.499C72.7636 145.799 102.565 135.889 131.558 125.041L132.491 127.484Z" fill="#FFAC00"/>
<path d="M119.268 93.0266C90.8672 103.659 61.7121 113.358 32.6174 121.871L31.8401 119.363C60.8909 110.868 89.889 101.234 118.335 90.583L119.268 93.0266Z" fill="#FFAC00"/>
<path d="M437.102 46.019L291.465 113.876L292.555 116.252L438.192 48.3948L437.102 46.019Z" fill="#FFAC00"/>
<path d="M429.466 29.2454L283.829 97.1026L284.918 99.4796L430.556 31.6224L429.466 29.2454Z" fill="#FFAC00"/>
<path d="M414.172 -4.34863L268.535 63.5086L269.625 65.8844L415.262 -1.97158L414.172 -4.34863Z" fill="#FFAC00"/>
<path d="M421.809 12.425L276.172 80.2822L277.261 82.6593L422.899 14.8021L421.809 12.425Z" fill="#FFAC00"/>
<path d="M406.526 -21.145L260.889 46.7122L261.979 49.088L407.616 -18.768L406.526 -21.145Z" fill="#FFAC00"/>
</g>
</svg>
